<svg version="1.1" id="Layer_1" xmlns="http://www.w3.org/2000/svg" xmlns:xlink="http://www.w3.org/1999/xlink" x="0px" y="0px"
	 width="100%" viewBox="0 0 1772 317" enable-background="new 0 0 1772 317" xml:space="preserve">
<path fill="#FEFEFF" opacity="1.000000" stroke="none" 
	d="
M1773.000000,109.999985 
	C1773.000000,179.311508 1773.000000,248.623032 1773.000000,318.000000 
	C1394.974121,318.000000 1016.948303,318.000000 638.593018,317.621643 
	C643.033386,316.431183 647.829163,315.745483 652.567444,314.778717 
	C660.622742,313.135223 669.026550,312.301086 676.591431,309.351044 
	C689.887512,304.166046 702.815857,297.951385 715.602356,291.574738 
	C725.070740,286.852875 734.171631,281.323730 740.820801,272.716431 
	C730.917480,256.763885 721.114441,240.972977 711.246826,225.078049 
	C709.284912,226.602432 708.136414,227.857727 706.713501,228.542618 
	C695.805969,233.792755 685.028809,239.378601 673.848511,243.978729 
	C662.895569,248.485275 651.317139,251.055634 639.368530,251.278824 
	C629.864868,251.456345 620.550110,251.066635 611.180298,248.318268 
	C601.832336,245.576294 593.426514,241.673630 585.925049,235.612442 
	C576.641907,228.111740 571.187256,218.031754 567.298218,207.074432 
	C565.492798,201.987778 563.641235,196.581207 563.539551,191.286469 
	C563.170532,172.072571 562.304565,152.840805 569.768982,134.281296 
	C574.136353,123.422234 579.256653,113.062119 586.546814,104.134018 
	C591.890503,97.589684 598.514465,91.789864 605.452026,86.917107 
	C616.303162,79.295547 628.749023,74.880928 642.076538,74.249954 
	C652.855652,73.739639 663.573425,73.985680 674.251221,77.124687 
	C687.546326,81.033142 699.752869,86.463303 709.758484,96.172821 
	C713.869934,100.162544 717.646667,104.497093 721.727783,108.836601 
	C729.351807,99.950951 736.144958,91.770691 743.227112,83.848808 
	C751.327881,74.787636 759.685547,65.956184 768.297241,56.628841 
	C762.266846,51.314560 756.278198,45.962315 750.199951,40.713734 
	C747.370361,38.270348 744.648438,35.485710 741.390320,33.795105 
	C731.105469,28.458399 720.607666,23.529465 710.159668,18.510471 
	C697.088379,12.231358 682.738281,10.752213 668.744141,9.480885 
	C655.729187,8.298511 642.436707,10.503690 629.259033,10.685340 
	C616.657349,10.859052 604.942688,15.004868 593.635315,19.376854 
	C576.174194,26.128181 560.730164,36.844990 546.852722,49.438198 
	C533.271118,61.762993 521.035828,75.365372 512.560791,91.844177 
	C507.089752,102.481941 501.151886,113.026978 497.154419,124.231216 
	C493.588776,134.225220 492.244476,145.037292 490.217590,155.545761 
	C488.874176,162.510849 487.479065,169.552460 487.176941,176.605652 
	C486.915405,182.711227 488.009644,188.900360 488.779602,195.017944 
	C489.665771,202.058212 490.348328,209.185242 492.041321,216.047104 
	C494.081604,224.316544 496.450531,232.627228 499.854218,240.404984 
	C503.565613,248.885941 507.722473,257.470734 513.320190,264.753571 
	C520.704712,274.361023 528.761902,283.922424 538.236145,291.317841 
	C547.371277,298.448608 558.453735,303.276794 569.091614,308.234985 
	C579.199524,312.946167 589.919128,316.130402 601.299438,316.352936 
	C602.876404,316.383728 604.433655,317.425995 606.000000,318.000000 
	C461.307495,318.000000 316.614990,318.000000 171.640320,317.612579 
	C216.767899,313.269897 252.949905,292.549438 282.049011,256.559021 
	C263.660431,243.710480 245.853363,231.268250 228.069168,218.841980 
	C226.245041,220.149643 224.575180,221.182877 223.091736,222.436646 
	C213.239471,230.763657 202.891907,238.230545 190.776291,243.084305 
	C170.257706,251.304504 149.455582,250.985519 128.923737,244.217789 
	C113.678802,239.192719 100.656776,230.365051 90.611725,217.273102 
	C78.724770,201.780487 72.405846,184.247131 71.261406,165.111099 
	C70.722992,156.108353 71.861526,146.628799 74.227394,137.904205 
	C79.818359,117.286400 90.418427,99.559418 108.306976,86.953056 
	C128.446701,72.760239 150.790741,68.362473 174.944122,71.985077 
	C191.047516,74.400307 204.976715,81.510773 216.744171,92.467705 
	C222.577469,97.899185 227.252609,104.574501 232.097916,110.271126 
	C251.990387,98.709694 271.870178,87.155640 292.569855,75.125061 
	C285.082336,65.940498 278.485016,56.010258 270.062927,47.998161 
	C260.294800,38.705540 249.421219,30.339754 238.133377,22.934561 
	C220.966873,11.672754 201.856277,4.999321 181.263367,2.969397 
	C176.490570,2.498924 171.753510,1.666094 167.000000,1.000000 
	C524.692505,1.000000 882.385010,1.000000 1240.577637,1.405828 
	C1238.310547,2.495133 1235.211060,2.601746 1232.837646,3.968841 
	C1225.301270,8.309584 1218.168945,12.814501 1212.622559,20.230999 
	C1208.140259,26.224924 1205.152466,32.679028 1204.296265,39.322453 
	C1202.815674,50.810291 1204.565186,61.814907 1215.842529,69.228477 
	C1221.623291,73.028549 1227.520630,75.173912 1234.196899,75.821320 
	C1243.645386,76.737549 1252.636841,74.549942 1259.885498,68.841492 
	C1265.835083,64.156090 1271.800781,58.345951 1275.084229,51.710629 
	C1279.171509,43.450806 1282.549561,34.302006 1278.974243,24.223434 
	C1276.795044,18.080700 1274.612061,12.647326 1268.782715,8.983870 
	C1263.927734,5.932898 1259.360962,2.592082 1253.354248,2.330340 
	C1253.217163,2.324364 1253.117188,1.462591 1253.000000,1.000003 
	C1426.214600,1.000000 1599.429077,1.000000 1773.000000,1.000000 
	C1773.000000,33.024948 1773.000000,65.051224 1772.575684,97.625778 
	C1770.266235,97.758141 1768.383301,96.992622 1766.495850,96.981255 
	C1750.496704,96.884872 1734.496582,96.920013 1718.496826,96.928627 
	C1712.013306,96.932121 1709.996338,99.206306 1709.559570,105.790352 
	C1709.337769,109.132820 1708.151611,112.411324 1707.387573,115.780258 
	C1700.809448,109.542702 1695.802612,103.185310 1689.367065,99.052361 
	C1678.436035,92.032196 1665.750122,89.281746 1652.800171,88.936615 
	C1646.109497,88.758308 1639.335083,89.488983 1632.690063,90.444794 
	C1625.686523,91.452187 1618.510986,92.445335 1611.919678,94.843826 
	C1603.375122,97.953217 1595.017578,101.905037 1587.165161,106.495827 
	C1579.373901,111.050758 1571.884766,116.356445 1565.054932,122.250412 
	C1559.131348,127.362381 1553.849609,133.407196 1549.127808,139.675278 
	C1543.140381,147.623199 1537.445801,155.905472 1532.657227,164.611404 
	C1527.657349,173.701752 1523.639648,183.366547 1522.650391,193.971512 
	C1522.307495,197.648972 1521.519409,201.289062 1520.852539,204.931183 
	C1519.869873,210.298920 1518.096802,215.630692 1517.927856,221.017532 
	C1517.488770,235.017944 1518.567627,248.722382 1523.835449,262.174438 
	C1528.329956,273.651428 1534.466919,283.788940 1542.388062,292.943695 
	C1545.340454,296.355835 1549.369751,298.815735 1552.762207,301.871552 
	C1562.836792,310.946350 1575.181519,315.046082 1588.168701,316.005676 
	C1598.956177,316.802795 1610.037354,316.135376 1620.757080,314.551270 
	C1629.534668,313.254181 1638.453735,310.656616 1646.442871,306.826752 
	C1657.686279,301.436829 1668.127930,294.374420 1679.029053,287.958557 
	C1678.189941,293.283234 1677.697144,299.224274 1676.214966,304.907379 
	C1675.076416,309.273468 1675.730835,311.449249 1680.234009,311.476440 
	C1698.733154,311.588074 1717.233887,311.593018 1735.731567,311.394196 
	C1737.309570,311.377228 1739.960327,309.818970 1740.252686,308.548492 
	C1741.760498,301.999298 1742.769043,295.326172 1743.746094,288.666107 
	C1744.944458,280.497314 1745.739746,272.265869 1747.077637,264.122040 
	C1748.454956,255.738022 1750.373535,247.444397 1751.871582,239.078293 
	C1753.090454,232.271271 1754.002197,225.409821 1755.114136,218.582916 
	C1756.717407,208.739609 1758.522583,198.926865 1759.972046,189.061447 
	C1761.243896,180.403107 1762.103516,171.684906 1763.228271,163.003891 
	C1763.724609,159.173065 1764.360352,155.356888 1765.048462,151.555008 
	C1766.591064,143.032333 1768.342407,134.545059 1769.738403,125.999207 
	C1770.526367,121.175888 1770.729980,116.258949 1771.339844,111.402100 
	C1771.406128,110.873573 1772.423584,110.464462 1773.000000,109.999985 
M1350.500000,14.004151 
	C1347.667236,14.004151 1344.834351,14.003895 1342.001587,14.004194 
	C1328.171143,14.005657 1314.340454,13.980887 1300.510132,14.024365 
	C1296.172852,14.037999 1293.890137,16.389595 1295.217407,19.569017 
	C1297.059814,23.982338 1299.237183,28.255053 1301.239502,32.602554 
	C1304.053589,38.712463 1306.976318,44.777264 1309.607300,50.965595 
	C1315.035278,63.732689 1320.272583,76.580673 1325.644165,89.371979 
	C1328.919800,97.172264 1332.443359,104.871048 1335.596313,112.719559 
	C1339.751587,123.062782 1343.474487,133.581650 1347.727173,143.883011 
	C1350.410522,150.382980 1353.977173,156.516693 1356.697144,163.003571 
	C1361.804565,175.183823 1366.874878,187.397018 1371.338867,199.819901 
	C1372.816650,203.932220 1373.172119,208.824936 1372.652832,213.195938 
	C1371.691772,221.285904 1369.488281,229.219559 1368.209106,237.282852 
	C1366.864258,245.761078 1366.141602,254.336533 1364.881348,262.830109 
	C1363.417725,272.695740 1361.651367,282.516205 1360.044678,292.360901 
	C1359.290894,296.979523 1359.246704,301.839203 1357.697388,306.165863 
	C1356.281860,310.118866 1357.971680,311.396576 1360.879395,311.418701 
	C1381.539917,311.576141 1402.203125,311.542114 1422.863037,311.332855 
	C1424.164795,311.319672 1426.336792,309.498199 1426.595093,308.214569 
	C1428.496094,298.762085 1430.241089,289.264526 1431.587891,279.718048 
	C1432.947754,270.077667 1433.754883,260.360199 1434.883179,250.685730 
	C1435.314575,246.986633 1435.867188,243.295166 1436.536377,239.631638 
	C1438.063721,231.270676 1440.628174,222.975021 1441.042725,214.567581 
	C1441.517700,204.933868 1445.804810,197.868805 1451.866699,191.091187 
	C1456.730347,185.653305 1461.189819,179.838348 1465.617432,174.029755 
	C1471.785645,165.937897 1477.661621,157.623077 1483.844482,149.542786 
	C1488.294922,143.726562 1493.231934,138.279282 1497.614380,132.415192 
	C1504.839478,122.747528 1511.674927,112.788681 1518.896118,103.118034 
	C1524.610596,95.465118 1530.842773,88.197205 1536.512451,80.512978 
	C1544.840454,69.226173 1552.729614,57.615444 1561.071899,46.339581 
	C1568.577026,36.195194 1576.440430,26.315916 1584.670898,15.638481 
	C1582.669434,15.014757 1581.060669,14.081649 1579.448364,14.075640 
	C1554.620483,13.983103 1529.791626,13.952367 1504.964844,14.141064 
	C1503.276245,14.153897 1501.031738,15.630141 1500.014404,17.097391 
	C1493.880615,25.942635 1488.024170,34.980343 1482.085449,43.960464 
	C1476.064941,53.064026 1470.040894,62.165142 1464.047485,71.286369 
	C1458.570312,79.621971 1453.142090,87.989677 1447.673706,96.330978 
	C1442.840576,103.703308 1438.017944,111.082909 1433.123047,118.414078 
	C1429.217285,124.263542 1425.209595,130.044968 1420.880371,136.394684 
	C1417.226685,126.060966 1413.753540,116.416817 1410.410645,106.727730 
	C1407.622803,98.647766 1405.092163,90.478470 1402.258789,82.415070 
	C1398.566406,71.907013 1394.685669,61.465195 1390.889526,50.993549 
	C1387.644775,42.043167 1384.047607,33.200191 1381.269287,24.107143 
	C1378.770874,15.930712 1376.916626,14.006597 1368.496460,14.004500 
	C1362.830933,14.003090 1357.165527,14.004181 1350.500000,14.004151 
M769.875488,175.518219 
	C768.766724,179.843033 768.110901,184.350418 766.456543,188.455353 
	C762.802734,197.521408 762.562317,207.114105 761.943604,216.545441 
	C761.164551,228.421982 763.230591,240.050903 766.533081,251.594925 
	C770.113037,264.108917 776.561279,274.903259 784.720276,284.600220 
	C790.596558,291.584320 797.499756,297.602600 805.429749,302.679901 
	C817.043396,310.115753 829.675293,314.425110 842.924316,315.973846 
	C854.760132,317.357361 866.901367,316.634155 878.876282,316.114227 
	C885.123962,315.842926 891.574768,314.779419 897.458130,312.716949 
	C910.019531,308.313538 922.774963,304.386383 934.186218,296.987274 
	C947.756897,288.187958 960.828735,279.161407 970.813293,266.015869 
	C978.675415,255.664749 984.947327,244.745651 989.773315,232.648285 
	C994.889954,219.822403 996.499817,206.511963 997.377686,193.089905 
	C998.110596,181.884232 997.553345,170.733582 994.445068,159.578857 
	C991.051514,147.400558 986.101379,136.231506 977.747559,126.984276 
	C971.036011,119.554893 963.366577,112.912109 955.621460,106.527710 
	C951.598816,103.211731 946.676270,100.772118 941.825256,98.733635 
	C936.371460,96.441841 930.619629,94.712166 924.853333,93.347084 
	C917.174500,91.529251 909.408203,89.620514 901.582520,89.024956 
	C894.955322,88.520599 888.104492,89.323814 881.506165,90.448975 
	C871.210876,92.204529 860.965942,94.409760 850.844788,96.993011 
	C837.291382,100.452232 825.733093,108.117455 814.836304,116.428581 
	C806.757202,122.590637 799.411804,129.847076 792.425781,137.262558 
	C787.935608,142.028763 784.330200,147.755234 780.979004,153.435242 
	C776.923157,160.309555 773.554443,167.589264 769.875488,175.518219 
M1049.484619,154.101837 
	C1048.959351,156.779007 1048.357056,159.443741 1047.922119,162.135529 
	C1046.252319,172.470154 1044.520874,182.796936 1043.035889,193.158676 
	C1041.795044,201.816437 1040.880737,210.520721 1039.792847,219.200790 
	C1039.251221,223.521988 1038.662109,227.837479 1038.063843,232.151306 
	C1037.022949,239.656158 1035.363770,247.135010 1035.076050,254.667252 
	C1034.803589,261.793854 1036.286377,268.969788 1036.401489,276.133636 
	C1036.530029,284.149475 1039.933838,291.043762 1044.311768,297.012024 
	C1053.261841,309.213013 1066.173096,314.613953 1081.151367,314.701447 
	C1086.326294,314.731720 1091.521362,313.109741 1096.683105,313.235565 
	C1107.869507,313.508392 1117.964233,309.264740 1128.346802,306.273712 
	C1130.524414,305.646393 1133.221069,303.499969 1133.855591,301.480743 
	C1135.528320,296.157501 1136.240601,290.527069 1137.259399,285.004974 
	C1138.919312,276.007629 1140.464844,266.988922 1142.166626,257.999664 
	C1142.991577,253.641418 1141.509766,251.752853 1137.510376,252.936127 
	C1127.470703,255.906555 1117.258789,256.685669 1106.850464,256.249573 
	C1103.018555,256.088989 1101.329712,254.590012 1101.598022,250.799500 
	C1102.130127,243.279007 1102.438354,235.736404 1103.205688,228.240463 
	C1104.045410,220.037689 1105.271118,211.873444 1106.385498,203.700134 
	C1106.907837,199.868256 1107.368652,196.011520 1108.201416,192.242004 
	C1109.645874,185.702423 1111.720215,179.284973 1112.866089,172.700684 
	C1114.302246,164.447403 1115.068604,156.077530 1116.186035,147.269897 
	C1118.451050,147.269897 1120.240723,147.270218 1122.030273,147.269852 
	C1134.525269,147.267197 1147.020508,147.236053 1159.515259,147.282288 
	C1162.503662,147.293350 1164.661133,146.654419 1165.017822,143.111984 
	C1165.388550,139.431366 1166.180786,135.795166 1166.631592,132.120285 
	C1167.756226,122.952156 1168.779297,113.771599 1169.881226,104.600601 
	C1169.993774,103.663292 1170.269165,102.717384 1170.631958,101.843048 
	C1172.416748,97.541313 1170.998047,95.317734 1166.147461,95.270531 
	C1157.318481,95.184608 1148.488037,95.242004 1139.658203,95.240311 
	C1135.208862,95.239456 1130.759399,95.240158 1125.751099,95.240158 
	C1126.608032,89.520905 1127.389893,84.460228 1128.117065,79.391701 
	C1128.555298,76.337891 1128.783203,73.249435 1129.327026,70.216286 
	C1130.255371,65.040100 1131.480835,59.915775 1132.349487,54.730820 
	C1133.096924,50.268829 1132.723877,45.441708 1134.319336,41.350582 
	C1135.826782,37.485672 1134.254761,36.883213 1131.543091,36.867939 
	C1112.717896,36.761898 1093.890991,36.739796 1075.067627,36.952168 
	C1073.611694,36.968590 1071.219604,38.752312 1070.891724,40.108402 
	C1068.935059,48.203510 1067.300293,56.386753 1065.858765,64.593300 
	C1064.087769,74.674797 1062.612183,84.808167 1061.014404,94.884888 
	C1059.723999,95.057434 1059.081299,95.217010 1058.438232,95.218369 
	C1048.109009,95.240173 1037.777832,95.363350 1027.451782,95.184761 
	C1023.631897,95.118698 1020.964661,97.173660 1020.398743,100.154839 
	C1018.831299,108.412132 1018.191223,116.840675 1016.963806,125.168983 
	C1016.145569,130.720734 1015.130066,136.258606 1013.865417,141.724625 
	C1012.822571,146.232010 1014.515930,148.843506 1019.210754,148.927917 
	C1023.541016,149.005753 1027.873657,148.951355 1032.205200,148.952377 
	C1038.440063,148.953842 1044.674927,148.952744 1051.856934,148.952744 
	C1050.744507,151.072372 1050.174438,152.158600 1049.484619,154.101837 
M1241.319092,252.721619 
	C1242.885376,244.377853 1244.597290,236.058075 1245.976318,227.683517 
	C1247.339355,219.407654 1248.424683,211.084137 1249.518799,202.766663 
	C1250.176147,197.769989 1250.371094,192.703171 1251.211426,187.741959 
	C1252.629028,179.370926 1254.533936,171.082581 1255.960327,162.712830 
	C1256.802490,157.770248 1257.064575,152.731247 1257.689331,147.748352 
	C1258.132324,144.213226 1258.703003,140.692337 1259.290894,137.177475 
	C1260.348999,130.850327 1261.384888,124.517693 1262.579224,118.215607 
	C1263.469604,113.517296 1264.392700,108.807137 1265.676270,104.206841 
	C1266.817749,100.115273 1265.130615,96.987015 1260.971436,96.969139 
	C1242.486572,96.889709 1224.000854,96.888435 1205.515991,96.972260 
	C1201.701660,96.989555 1199.572754,99.277008 1199.077026,103.041969 
	C1198.000244,111.221199 1196.965698,119.406113 1195.854736,127.580666 
	C1195.290405,131.733261 1194.644287,135.876236 1193.952026,140.009613 
	C1192.997437,145.709030 1191.894409,151.384140 1190.986816,157.090637 
	C1190.276978,161.554245 1189.799438,166.054260 1189.158813,170.529510 
	C1188.677490,173.891769 1188.151123,177.249298 1187.556152,180.593155 
	C1186.548218,186.257660 1185.361084,191.892319 1184.456787,197.572540 
	C1183.742432,202.059402 1183.538696,206.630692 1182.755493,211.102722 
	C1181.290283,219.469788 1179.406494,227.764984 1178.014160,236.142807 
	C1177.139038,241.408508 1176.899048,246.777100 1176.265625,252.086563 
	C1175.823975,255.788116 1175.295288,259.485260 1174.632202,263.153046 
	C1173.637329,268.655334 1172.341309,274.106171 1171.454224,279.624023 
	C1170.706909,284.272797 1170.578735,289.024109 1169.771240,293.659393 
	C1169.006470,298.049225 1167.478760,302.307037 1166.731689,306.698608 
	C1166.170166,309.999054 1168.177979,311.535767 1171.451538,311.533539 
	C1190.436279,311.520599 1209.421875,311.594055 1228.404663,311.401520 
	C1229.977905,311.385590 1232.602295,309.869049 1232.904663,308.609558 
	C1233.991577,304.081512 1234.308472,299.366669 1234.884644,294.718475 
	C1235.482910,289.889221 1235.880127,285.028717 1236.658203,280.229340 
	C1238.098511,271.345306 1239.752319,262.495850 1241.319092,252.721619 
M302.011475,212.694153 
	C301.565460,218.388840 302.209717,223.996674 308.137634,226.385849 
	C313.247162,228.445175 318.523254,227.232574 322.844513,223.585724 
	C330.249908,217.336060 337.526611,210.934113 344.880737,204.623367 
	C351.478699,198.961548 358.180023,193.417999 364.704559,187.673309 
	C372.007263,181.243484 379.504456,174.978470 386.271759,168.014664 
	C391.529358,162.604385 391.529480,156.334534 386.336273,151.004639 
	C368.777924,132.984253 350.887360,115.285965 333.014160,97.575188 
	C329.084045,93.680794 323.992004,92.685196 318.918915,94.730133 
	C313.814056,96.787895 311.926575,101.250832 311.985718,106.649033 
	C312.056030,113.064682 312.002258,119.481682 312.002258,126.002396 
	C301.417511,126.002396 291.583862,126.195641 281.764221,125.909309 
	C277.715118,125.791245 275.884399,127.914940 275.115387,131.098602 
	C273.821320,136.456085 272.980652,141.925308 272.011627,147.358643 
	C269.556763,161.123383 267.262054,174.918213 264.643982,188.651581 
	C263.510559,194.596924 265.098083,196.979630 271.193726,196.991684 
	C281.996582,197.013046 292.799469,196.997681 304.106506,196.997681 
	C303.389038,202.213440 302.730743,206.999115 302.011475,212.694153 
M257.997772,139.611542 
	C258.011566,138.779282 257.874725,137.911285 258.062317,137.120239 
	C260.108337,128.492920 258.181152,126.002945 249.380692,126.002724 
	C213.413086,126.001793 177.445496,125.999321 141.477890,126.005508 
	C135.970490,126.006454 133.036987,128.843124 133.021042,134.430435 
	C132.970688,152.081070 132.988113,169.731934 133.010452,187.382675 
	C133.017899,193.255478 136.618134,197.481979 142.564301,197.142120 
	C152.024841,196.601334 161.538940,196.997696 171.030396,196.997696 
	C195.008804,196.997696 218.987198,197.007828 242.965607,196.990189 
	C248.598038,196.986038 251.223709,194.887512 251.983200,189.616898 
	C252.773926,184.129410 253.373199,178.614197 254.043564,173.109558 
	C255.366226,162.248642 256.680176,151.386673 257.997772,139.611542 
z"/>
<path fill="#1448A8" opacity="1.000000" stroke="none" 
	d="
M166.533875,1.000000 
	C171.753510,1.666094 176.490570,2.498924 181.263367,2.969397 
	C201.856277,4.999321 220.966873,11.672754 238.133377,22.934561 
	C249.421219,30.339754 260.294800,38.705540 270.062927,47.998161 
	C278.485016,56.010258 285.082336,65.940498 292.569855,75.125061 
	C271.870178,87.155640 251.990387,98.709694 232.097916,110.271126 
	C227.252609,104.574501 222.577469,97.899185 216.744171,92.467705 
	C204.976715,81.510773 191.047516,74.400307 174.944122,71.985077 
	C150.790741,68.362473 128.446701,72.760239 108.306976,86.953056 
	C90.418427,99.559418 79.818359,117.286400 74.227394,137.904205 
	C71.861526,146.628799 70.722992,156.108353 71.261406,165.111099 
	C72.405846,184.247131 78.724770,201.780487 90.611725,217.273102 
	C100.656776,230.365051 113.678802,239.192719 128.923737,244.217789 
	C149.455582,250.985519 170.257706,251.304504 190.776291,243.084305 
	C202.891907,238.230545 213.239471,230.763657 223.091736,222.436646 
	C224.575180,221.182877 226.245041,220.149643 228.069168,218.841980 
	C245.853363,231.268250 263.660431,243.710480 282.049011,256.559021 
	C252.949905,292.549438 216.767899,313.269897 171.179077,317.612579 
	C161.645767,318.000000 152.291550,318.000000 142.286133,317.611176 
	C137.892349,316.818665 134.134964,316.519958 130.409637,315.994080 
	C108.557854,312.909332 88.649734,304.757660 70.244766,292.744934 
	C54.945194,282.759033 42.192200,270.060974 31.150606,255.611130 
	C17.139706,237.275375 8.282539,216.623611 4.005110,193.984207 
	C2.937801,188.335205 1.998264,182.662048 1.000000,177.000000 
	C1.000000,167.312439 1.000000,157.624878 1.386866,147.289124 
	C2.849530,139.063461 3.433870,131.376846 5.088337,123.927917 
	C11.406214,95.482788 25.169031,71.040039 45.368534,50.070244 
	C60.867271,33.980469 78.674942,21.417011 99.372162,12.906647 
	C111.734459,7.823472 124.360458,4.010190 137.761353,2.949638 
	C142.529129,2.572314 147.255005,1.665247 152.000000,1.000000 
	C156.689255,1.000000 161.378510,1.000000 166.533875,1.000000 
z"/>
<path fill="#1649A9" opacity="1.000000" stroke="none" 
	d="
M606.468628,318.000000 
	C604.433655,317.425995 602.876404,316.383728 601.299438,316.352936 
	C589.919128,316.130402 579.199524,312.946167 569.091614,308.234985 
	C558.453735,303.276794 547.371277,298.448608 538.236145,291.317841 
	C528.761902,283.922424 520.704712,274.361023 513.320190,264.753571 
	C507.722473,257.470734 503.565613,248.885941 499.854218,240.404984 
	C496.450531,232.627228 494.081604,224.316544 492.041321,216.047104 
	C490.348328,209.185242 489.665771,202.058212 488.779602,195.017944 
	C488.009644,188.900360 486.915405,182.711227 487.176941,176.605652 
	C487.479065,169.552460 488.874176,162.510849 490.217590,155.545761 
	C492.244476,145.037292 493.588776,134.225220 497.154419,124.231216 
	C501.151886,113.026978 507.089752,102.481941 512.560791,91.844177 
	C521.035828,75.365372 533.271118,61.762993 546.852722,49.438198 
	C560.730164,36.844990 576.174194,26.128181 593.635315,19.376854 
	C604.942688,15.004868 616.657349,10.859052 629.259033,10.685340 
	C642.436707,10.503690 655.729187,8.298511 668.744141,9.480885 
	C682.738281,10.752213 697.088379,12.231358 710.159668,18.510471 
	C720.607666,23.529465 731.105469,28.458399 741.390320,33.795105 
	C744.648438,35.485710 747.370361,38.270348 750.199951,40.713734 
	C756.278198,45.962315 762.266846,51.314560 768.297241,56.628841 
	C759.685547,65.956184 751.327881,74.787636 743.227112,83.848808 
	C736.144958,91.770691 729.351807,99.950951 721.727783,108.836601 
	C717.646667,104.497093 713.869934,100.162544 709.758484,96.172821 
	C699.752869,86.463303 687.546326,81.033142 674.251221,77.124687 
	C663.573425,73.985680 652.855652,73.739639 642.076538,74.249954 
	C628.749023,74.880928 616.303162,79.295547 605.452026,86.917107 
	C598.514465,91.789864 591.890503,97.589684 586.546814,104.134018 
	C579.256653,113.062119 574.136353,123.422234 569.768982,134.281296 
	C562.304565,152.840805 563.170532,172.072571 563.539551,191.286469 
	C563.641235,196.581207 565.492798,201.987778 567.298218,207.074432 
	C571.187256,218.031754 576.641907,228.111740 585.925049,235.612442 
	C593.426514,241.673630 601.832336,245.576294 611.180298,248.318268 
	C620.550110,251.066635 629.864868,251.456345 639.368530,251.278824 
	C651.317139,251.055634 662.895569,248.485275 673.848511,243.978729 
	C685.028809,239.378601 695.805969,233.792755 706.713501,228.542618 
	C708.136414,227.857727 709.284912,226.602432 711.246826,225.078049 
	C721.114441,240.972977 730.917480,256.763885 740.820801,272.716431 
	C734.171631,281.323730 725.070740,286.852875 715.602356,291.574738 
	C702.815857,297.951385 689.887512,304.166046 676.591431,309.351044 
	C669.026550,312.301086 660.622742,313.135223 652.567444,314.778717 
	C647.829163,315.745483 643.033386,316.431183 638.131714,317.621643 
	C627.645752,318.000000 617.291565,318.000000 606.468628,318.000000 
z"/>
<path fill="#1649A9" opacity="1.000000" stroke="none" 
	d="
M1773.000000,109.539345 
	C1772.423584,110.464462 1771.406128,110.873573 1771.339844,111.402100 
	C1770.729980,116.258949 1770.526367,121.175888 1769.738403,125.999207 
	C1768.342407,134.545059 1766.591064,143.032333 1765.048462,151.555008 
	C1764.360352,155.356888 1763.724609,159.173065 1763.228271,163.003891 
	C1762.103516,171.684906 1761.243896,180.403107 1759.972046,189.061447 
	C1758.522583,198.926865 1756.717407,208.739609 1755.114136,218.582916 
	C1754.002197,225.409821 1753.090454,232.271271 1751.871582,239.078293 
	C1750.373535,247.444397 1748.454956,255.738022 1747.077637,264.122040 
	C1745.739746,272.265869 1744.944458,280.497314 1743.746094,288.666107 
	C1742.769043,295.326172 1741.760498,301.999298 1740.252686,308.548492 
	C1739.960327,309.818970 1737.309570,311.377228 1735.731567,311.394196 
	C1717.233887,311.593018 1698.733154,311.588074 1680.234009,311.476440 
	C1675.730835,311.449249 1675.076416,309.273468 1676.214966,304.907379 
	C1677.697144,299.224274 1678.189941,293.283234 1679.029053,287.958557 
	C1668.127930,294.374420 1657.686279,301.436829 1646.442871,306.826752 
	C1638.453735,310.656616 1629.534668,313.254181 1620.757080,314.551270 
	C1610.037354,316.135376 1598.956177,316.802795 1588.168701,316.005676 
	C1575.181519,315.046082 1562.836792,310.946350 1552.762207,301.871552 
	C1549.369751,298.815735 1545.340454,296.355835 1542.388062,292.943695 
	C1534.466919,283.788940 1528.329956,273.651428 1523.835449,262.174438 
	C1518.567627,248.722382 1517.488770,235.017944 1517.927856,221.017532 
	C1518.096802,215.630692 1519.869873,210.298920 1520.852539,204.931183 
	C1521.519409,201.289062 1522.307495,197.648972 1522.650391,193.971512 
	C1523.639648,183.366547 1527.657349,173.701752 1532.657227,164.611404 
	C1537.445801,155.905472 1543.140381,147.623199 1549.127808,139.675278 
	C1553.849609,133.407196 1559.131348,127.362381 1565.054932,122.250412 
	C1571.884766,116.356445 1579.373901,111.050758 1587.165161,106.495827 
	C1595.017578,101.905037 1603.375122,97.953217 1611.919678,94.843826 
	C1618.510986,92.445335 1625.686523,91.452187 1632.690063,90.444794 
	C1639.335083,89.488983 1646.109497,88.758308 1652.800171,88.936615 
	C1665.750122,89.281746 1678.436035,92.032196 1689.367065,99.052361 
	C1695.802612,103.185310 1700.809448,109.542702 1707.387573,115.780258 
	C1708.151611,112.411324 1709.337769,109.132820 1709.559570,105.790352 
	C1709.996338,99.206306 1712.013306,96.932121 1718.496826,96.928627 
	C1734.496582,96.920013 1750.496704,96.884872 1766.495850,96.981255 
	C1768.383301,96.992622 1770.266235,97.758141 1772.575684,98.087036 
	C1773.000000,101.692909 1773.000000,105.385818 1773.000000,109.539345 
M1691.758667,204.671265 
	C1692.264771,203.307022 1693.103516,201.970978 1693.221802,200.573898 
	C1693.897461,192.596161 1694.656006,184.609222 1694.823364,176.613647 
	C1694.880127,173.894791 1693.922607,170.694061 1692.340576,168.497101 
	C1689.014160,163.877731 1685.338135,159.367538 1681.130371,155.558426 
	C1674.625000,149.669357 1666.880737,145.900131 1657.865967,145.762390 
	C1650.026978,145.642609 1642.445435,146.042801 1634.641113,148.553696 
	C1626.004395,151.332367 1618.630371,155.542526 1612.037842,161.282745 
	C1604.123657,168.173615 1597.915527,176.562881 1594.768799,186.665848 
	C1592.255371,194.735275 1588.734375,202.626099 1589.188965,211.449539 
	C1589.488647,217.265686 1588.896729,223.138229 1589.369141,228.931274 
	C1589.686523,232.823502 1590.930664,236.699081 1592.170776,240.446198 
	C1596.119141,252.376938 1606.566162,257.251648 1617.114502,258.966461 
	C1630.795410,261.190491 1644.969971,260.219818 1657.832275,253.476196 
	C1664.238403,250.117554 1670.783447,246.829941 1676.591064,242.586777 
	C1681.055054,239.325226 1686.275024,235.241150 1687.930542,230.415314 
	C1690.602905,222.626083 1690.619263,213.925690 1691.758667,204.671265 
z"/>
<path fill="#FFFFFF" opacity="1.000000" stroke="none" 
	d="
M151.531342,1.000000 
	C147.255005,1.665247 142.529129,2.572314 137.761353,2.949638 
	C124.360458,4.010190 111.734459,7.823472 99.372162,12.906647 
	C78.674942,21.417011 60.867271,33.980469 45.368534,50.070244 
	C25.169031,71.040039 11.406214,95.482788 5.088337,123.927917 
	C3.433870,131.376846 2.849530,139.063461 1.386866,146.820465 
	C1.000000,98.405106 1.000000,49.810207 1.000000,1.000000 
	C51.020687,1.000000 101.041687,1.000000 151.531342,1.000000 
z"/>
<path fill="#FFFFFF" opacity="1.000000" stroke="none" 
	d="
M1.000000,177.468658 
	C1.998264,182.662048 2.937801,188.335205 4.005110,193.984207 
	C8.282539,216.623611 17.139706,237.275375 31.150606,255.611130 
	C42.192200,270.060974 54.945194,282.759033 70.244766,292.744934 
	C88.649734,304.757660 108.557854,312.909332 130.409637,315.994080 
	C134.134964,316.519958 137.892349,316.818665 141.817474,317.611176 
	C95.073006,318.000000 48.146011,318.000000 1.000000,318.000000 
	C1.000000,271.312653 1.000000,224.624985 1.000000,177.468658 
z"/>
<path fill="#174AAA" opacity="1.000000" stroke="none" 
	d="
M1252.539307,1.000003 
	C1253.117188,1.462591 1253.217163,2.324364 1253.354248,2.330340 
	C1259.360962,2.592082 1263.927734,5.932898 1268.782715,8.983870 
	C1274.612061,12.647326 1276.795044,18.080700 1278.974243,24.223434 
	C1282.549561,34.302006 1279.171509,43.450806 1275.084229,51.710629 
	C1271.800781,58.345951 1265.835083,64.156090 1259.885498,68.841492 
	C1252.636841,74.549942 1243.645386,76.737549 1234.196899,75.821320 
	C1227.520630,75.173912 1221.623291,73.028549 1215.842529,69.228477 
	C1204.565186,61.814907 1202.815674,50.810291 1204.296265,39.322453 
	C1205.152466,32.679028 1208.140259,26.224924 1212.622559,20.230999 
	C1218.168945,12.814501 1225.301270,8.309584 1232.837646,3.968841 
	C1235.211060,2.601746 1238.310547,2.495133 1241.038818,1.405828 
	C1244.692871,1.000000 1248.385864,1.000000 1252.539307,1.000003 
z"/>
<path fill="#164AA9" opacity="1.000000" stroke="none" 
	d="
M1351.000000,14.004152 
	C1357.165527,14.004181 1362.830933,14.003090 1368.496460,14.004500 
	C1376.916626,14.006597 1378.770874,15.930712 1381.269287,24.107143 
	C1384.047607,33.200191 1387.644775,42.043167 1390.889526,50.993549 
	C1394.685669,61.465195 1398.566406,71.907013 1402.258789,82.415070 
	C1405.092163,90.478470 1407.622803,98.647766 1410.410645,106.727730 
	C1413.753540,116.416817 1417.226685,126.060966 1420.880371,136.394684 
	C1425.209595,130.044968 1429.217285,124.263542 1433.123047,118.414078 
	C1438.017944,111.082909 1442.840576,103.703308 1447.673706,96.330978 
	C1453.142090,87.989677 1458.570312,79.621971 1464.047485,71.286369 
	C1470.040894,62.165142 1476.064941,53.064026 1482.085449,43.960464 
	C1488.024170,34.980343 1493.880615,25.942635 1500.014404,17.097391 
	C1501.031738,15.630141 1503.276245,14.153897 1504.964844,14.141064 
	C1529.791626,13.952367 1554.620483,13.983103 1579.448364,14.075640 
	C1581.060669,14.081649 1582.669434,15.014757 1584.670898,15.638481 
	C1576.440430,26.315916 1568.577026,36.195194 1561.071899,46.339581 
	C1552.729614,57.615444 1544.840454,69.226173 1536.512451,80.512978 
	C1530.842773,88.197205 1524.610596,95.465118 1518.896118,103.118034 
	C1511.674927,112.788681 1504.839478,122.747528 1497.614380,132.415192 
	C1493.231934,138.279282 1488.294922,143.726562 1483.844482,149.542786 
	C1477.661621,157.623077 1471.785645,165.937897 1465.617432,174.029755 
	C1461.189819,179.838348 1456.730347,185.653305 1451.866699,191.091187 
	C1445.804810,197.868805 1441.517700,204.933868 1441.042725,214.567581 
	C1440.628174,222.975021 1438.063721,231.270676 1436.536377,239.631638 
	C1435.867188,243.295166 1435.314575,246.986633 1434.883179,250.685730 
	C1433.754883,260.360199 1432.947754,270.077667 1431.587891,279.718048 
	C1430.241089,289.264526 1428.496094,298.762085 1426.595093,308.214569 
	C1426.336792,309.498199 1424.164795,311.319672 1422.863037,311.332855 
	C1402.203125,311.542114 1381.539917,311.576141 1360.879395,311.418701 
	C1357.971680,311.396576 1356.281860,310.118866 1357.697388,306.165863 
	C1359.246704,301.839203 1359.290894,296.979523 1360.044678,292.360901 
	C1361.651367,282.516205 1363.417725,272.695740 1364.881348,262.830109 
	C1366.141602,254.336533 1366.864258,245.761078 1368.209106,237.282852 
	C1369.488281,229.219559 1371.691772,221.285904 1372.652832,213.195938 
	C1373.172119,208.824936 1372.816650,203.932220 1371.338867,199.819901 
	C1366.874878,187.397018 1361.804565,175.183823 1356.697144,163.003571 
	C1353.977173,156.516693 1350.410522,150.382980 1347.727173,143.883011 
	C1343.474487,133.581650 1339.751587,123.062782 1335.596313,112.719559 
	C1332.443359,104.871048 1328.919800,97.172264 1325.644165,89.371979 
	C1320.272583,76.580673 1315.035278,63.732689 1309.607300,50.965595 
	C1306.976318,44.777264 1304.053589,38.712463 1301.239502,32.602554 
	C1299.237183,28.255053 1297.059814,23.982338 1295.217407,19.569017 
	C1293.890137,16.389595 1296.172852,14.037999 1300.510132,14.024365 
	C1314.340454,13.980887 1328.171143,14.005657 1342.001587,14.004194 
	C1344.834351,14.003895 1347.667236,14.004151 1351.000000,14.004152 
z"/>
<path fill="#164AA9" opacity="1.000000" stroke="none" 
	d="
M769.881958,175.105881 
	C773.554443,167.589264 776.923157,160.309555 780.979004,153.435242 
	C784.330200,147.755234 787.935608,142.028763 792.425781,137.262558 
	C799.411804,129.847076 806.757202,122.590637 814.836304,116.428581 
	C825.733093,108.117455 837.291382,100.452232 850.844788,96.993011 
	C860.965942,94.409760 871.210876,92.204529 881.506165,90.448975 
	C888.104492,89.323814 894.955322,88.520599 901.582520,89.024956 
	C909.408203,89.620514 917.174500,91.529251 924.853333,93.347084 
	C930.619629,94.712166 936.371460,96.441841 941.825256,98.733635 
	C946.676270,100.772118 951.598816,103.211731 955.621460,106.527710 
	C963.366577,112.912109 971.036011,119.554893 977.747559,126.984276 
	C986.101379,136.231506 991.051514,147.400558 994.445068,159.578857 
	C997.553345,170.733582 998.110596,181.884232 997.377686,193.089905 
	C996.499817,206.511963 994.889954,219.822403 989.773315,232.648285 
	C984.947327,244.745651 978.675415,255.664749 970.813293,266.015869 
	C960.828735,279.161407 947.756897,288.187958 934.186218,296.987274 
	C922.774963,304.386383 910.019531,308.313538 897.458130,312.716949 
	C891.574768,314.779419 885.123962,315.842926 878.876282,316.114227 
	C866.901367,316.634155 854.760132,317.357361 842.924316,315.973846 
	C829.675293,314.425110 817.043396,310.115753 805.429749,302.679901 
	C797.499756,297.602600 790.596558,291.584320 784.720276,284.600220 
	C776.561279,274.903259 770.113037,264.108917 766.533081,251.594925 
	C763.230591,240.050903 761.164551,228.421982 761.943604,216.545441 
	C762.562317,207.114105 762.802734,197.521408 766.456543,188.455353 
	C768.110901,184.350418 768.766724,179.843033 769.881958,175.105881 
M896.191284,254.769089 
	C905.086731,250.555862 912.584290,245.135010 918.864807,237.000473 
	C926.719177,226.827347 930.655762,215.404404 932.123169,203.450546 
	C934.293396,185.770599 931.018127,168.892746 915.523071,157.394699 
	C909.787415,153.138626 903.055969,148.816696 896.269531,147.743164 
	C887.903931,146.419800 878.809326,147.521332 870.395569,149.302750 
	C862.030273,151.073898 854.613831,155.740662 848.453735,162.074158 
	C842.271790,168.430115 837.798584,175.503540 834.379333,183.892532 
	C830.689270,192.946106 829.722961,202.284363 828.700867,211.537445 
	C828.025513,217.651550 830.039185,224.291702 831.843933,230.402451 
	C835.443909,242.591873 842.360779,251.897736 855.074524,256.502991 
	C868.916321,261.516815 882.162415,260.205994 896.191284,254.769089 
z"/>
<path fill="#164AA9" opacity="1.000000" stroke="none" 
	d="
M1049.544434,153.673340 
	C1050.174438,152.158600 1050.744507,151.072372 1051.856934,148.952744 
	C1044.674927,148.952744 1038.440063,148.953842 1032.205200,148.952377 
	C1027.873657,148.951355 1023.541016,149.005753 1019.210754,148.927917 
	C1014.515930,148.843506 1012.822571,146.232010 1013.865417,141.724625 
	C1015.130066,136.258606 1016.145569,130.720734 1016.963806,125.168983 
	C1018.191223,116.840675 1018.831299,108.412132 1020.398743,100.154839 
	C1020.964661,97.173660 1023.631897,95.118698 1027.451782,95.184761 
	C1037.777832,95.363350 1048.109009,95.240173 1058.438232,95.218369 
	C1059.081299,95.217010 1059.723999,95.057434 1061.014404,94.884888 
	C1062.612183,84.808167 1064.087769,74.674797 1065.858765,64.593300 
	C1067.300293,56.386753 1068.935059,48.203510 1070.891724,40.108402 
	C1071.219604,38.752312 1073.611694,36.968590 1075.067627,36.952168 
	C1093.890991,36.739796 1112.717896,36.761898 1131.543091,36.867939 
	C1134.254761,36.883213 1135.826782,37.485672 1134.319336,41.350582 
	C1132.723877,45.441708 1133.096924,50.268829 1132.349487,54.730820 
	C1131.480835,59.915775 1130.255371,65.040100 1129.327026,70.216286 
	C1128.783203,73.249435 1128.555298,76.337891 1128.117065,79.391701 
	C1127.389893,84.460228 1126.608032,89.520905 1125.751099,95.240158 
	C1130.759399,95.240158 1135.208862,95.239456 1139.658203,95.240311 
	C1148.488037,95.242004 1157.318481,95.184608 1166.147461,95.270531 
	C1170.998047,95.317734 1172.416748,97.541313 1170.631958,101.843048 
	C1170.269165,102.717384 1169.993774,103.663292 1169.881226,104.600601 
	C1168.779297,113.771599 1167.756226,122.952156 1166.631592,132.120285 
	C1166.180786,135.795166 1165.388550,139.431366 1165.017822,143.111984 
	C1164.661133,146.654419 1162.503662,147.293350 1159.515259,147.282288 
	C1147.020508,147.236053 1134.525269,147.267197 1122.030273,147.269852 
	C1120.240723,147.270218 1118.451050,147.269897 1116.186035,147.269897 
	C1115.068604,156.077530 1114.302246,164.447403 1112.866089,172.700684 
	C1111.720215,179.284973 1109.645874,185.702423 1108.201416,192.242004 
	C1107.368652,196.011520 1106.907837,199.868256 1106.385498,203.700134 
	C1105.271118,211.873444 1104.045410,220.037689 1103.205688,228.240463 
	C1102.438354,235.736404 1102.130127,243.279007 1101.598022,250.799500 
	C1101.329712,254.590012 1103.018555,256.088989 1106.850464,256.249573 
	C1117.258789,256.685669 1127.470703,255.906555 1137.510376,252.936127 
	C1141.509766,251.752853 1142.991577,253.641418 1142.166626,257.999664 
	C1140.464844,266.988922 1138.919312,276.007629 1137.259399,285.004974 
	C1136.240601,290.527069 1135.528320,296.157501 1133.855591,301.480743 
	C1133.221069,303.499969 1130.524414,305.646393 1128.346802,306.273712 
	C1117.964233,309.264740 1107.869507,313.508392 1096.683105,313.235565 
	C1091.521362,313.109741 1086.326294,314.731720 1081.151367,314.701447 
	C1066.173096,314.613953 1053.261841,309.213013 1044.311768,297.012024 
	C1039.933838,291.043762 1036.530029,284.149475 1036.401489,276.133636 
	C1036.286377,268.969788 1034.803589,261.793854 1035.076050,254.667252 
	C1035.363770,247.135010 1037.022949,239.656158 1038.063843,232.151306 
	C1038.662109,227.837479 1039.251221,223.521988 1039.792847,219.200790 
	C1040.880737,210.520721 1041.795044,201.816437 1043.035889,193.158676 
	C1044.520874,182.796936 1046.252319,172.470154 1047.922119,162.135529 
	C1048.357056,159.443741 1048.959351,156.779007 1049.544434,153.673340 
z"/>
<path fill="#164AA9" opacity="1.000000" stroke="none" 
	d="
M1241.318115,253.176819 
	C1239.752319,262.495850 1238.098511,271.345306 1236.658203,280.229340 
	C1235.880127,285.028717 1235.482910,289.889221 1234.884644,294.718475 
	C1234.308472,299.366669 1233.991577,304.081512 1232.904663,308.609558 
	C1232.602295,309.869049 1229.977905,311.385590 1228.404663,311.401520 
	C1209.421875,311.594055 1190.436279,311.520599 1171.451538,311.533539 
	C1168.177979,311.535767 1166.170166,309.999054 1166.731689,306.698608 
	C1167.478760,302.307037 1169.006470,298.049225 1169.771240,293.659393 
	C1170.578735,289.024109 1170.706909,284.272797 1171.454224,279.624023 
	C1172.341309,274.106171 1173.637329,268.655334 1174.632202,263.153046 
	C1175.295288,259.485260 1175.823975,255.788116 1176.265625,252.086563 
	C1176.899048,246.777100 1177.139038,241.408508 1178.014160,236.142807 
	C1179.406494,227.764984 1181.290283,219.469788 1182.755493,211.102722 
	C1183.538696,206.630692 1183.742432,202.059402 1184.456787,197.572540 
	C1185.361084,191.892319 1186.548218,186.257660 1187.556152,180.593155 
	C1188.151123,177.249298 1188.677490,173.891769 1189.158813,170.529510 
	C1189.799438,166.054260 1190.276978,161.554245 1190.986816,157.090637 
	C1191.894409,151.384140 1192.997437,145.709030 1193.952026,140.009613 
	C1194.644287,135.876236 1195.290405,131.733261 1195.854736,127.580666 
	C1196.965698,119.406113 1198.000244,111.221199 1199.077026,103.041969 
	C1199.572754,99.277008 1201.701660,96.989555 1205.515991,96.972260 
	C1224.000854,96.888435 1242.486572,96.889709 1260.971436,96.969139 
	C1265.130615,96.987015 1266.817749,100.115273 1265.676270,104.206841 
	C1264.392700,108.807137 1263.469604,113.517296 1262.579224,118.215607 
	C1261.384888,124.517693 1260.348999,130.850327 1259.290894,137.177475 
	C1258.703003,140.692337 1258.132324,144.213226 1257.689331,147.748352 
	C1257.064575,152.731247 1256.802490,157.770248 1255.960327,162.712830 
	C1254.533936,171.082581 1252.629028,179.370926 1251.211426,187.741959 
	C1250.371094,192.703171 1250.176147,197.769989 1249.518799,202.766663 
	C1248.424683,211.084137 1247.339355,219.407654 1245.976318,227.683517 
	C1244.597290,236.058075 1242.885376,244.377853 1241.318115,253.176819 
z"/>
<path fill="#1448A8" opacity="1.000000" stroke="none" 
	d="
M302.041962,212.239471 
	C302.730743,206.999115 303.389038,202.213440 304.106506,196.997681 
	C292.799469,196.997681 281.996582,197.013046 271.193726,196.991684 
	C265.098083,196.979630 263.510559,194.596924 264.643982,188.651581 
	C267.262054,174.918213 269.556763,161.123383 272.011627,147.358643 
	C272.980652,141.925308 273.821320,136.456085 275.115387,131.098602 
	C275.884399,127.914940 277.715118,125.791245 281.764221,125.909309 
	C291.583862,126.195641 301.417511,126.002396 312.002258,126.002396 
	C312.002258,119.481682 312.056030,113.064682 311.985718,106.649033 
	C311.926575,101.250832 313.814056,96.787895 318.918915,94.730133 
	C323.992004,92.685196 329.084045,93.680794 333.014160,97.575188 
	C350.887360,115.285965 368.777924,132.984253 386.336273,151.004639 
	C391.529480,156.334534 391.529358,162.604385 386.271759,168.014664 
	C379.504456,174.978470 372.007263,181.243484 364.704559,187.673309 
	C358.180023,193.417999 351.478699,198.961548 344.880737,204.623367 
	C337.526611,210.934113 330.249908,217.336060 322.844513,223.585724 
	C318.523254,227.232574 313.247162,228.445175 308.137634,226.385849 
	C302.209717,223.996674 301.565460,218.388840 302.041962,212.239471 
z"/>
<path fill="#1448A8" opacity="1.000000" stroke="none" 
	d="
M257.997742,140.068329 
	C256.680176,151.386673 255.366226,162.248642 254.043564,173.109558 
	C253.373199,178.614197 252.773926,184.129410 251.983200,189.616898 
	C251.223709,194.887512 248.598038,196.986038 242.965607,196.990189 
	C218.987198,197.007828 195.008804,196.997696 171.030396,196.997696 
	C161.538940,196.997696 152.024841,196.601334 142.564301,197.142120 
	C136.618134,197.481979 133.017899,193.255478 133.010452,187.382675 
	C132.988113,169.731934 132.970688,152.081070 133.021042,134.430435 
	C133.036987,128.843124 135.970490,126.006454 141.477890,126.005508 
	C177.445496,125.999321 213.413086,126.001793 249.380692,126.002724 
	C258.181152,126.002945 260.108337,128.492920 258.062317,137.120239 
	C257.874725,137.911285 258.011566,138.779282 257.997742,140.068329 
M165.384827,142.000000 
	C161.975555,142.000000 158.566299,142.000000 155.343597,142.000000 
	C155.343597,155.079971 155.343597,167.447296 155.343597,179.638397 
	C160.413330,179.638397 165.133850,179.638397 169.999496,179.638397 
	C169.999496,167.992035 169.895050,156.705124 170.069534,145.422531 
	C170.115829,142.429550 168.997238,141.609558 165.384827,142.000000 
M232.397873,142.000000 
	C229.319275,142.000000 226.240677,142.000000 223.339722,142.000000 
	C223.339722,155.073441 223.339722,167.441025 223.339722,179.640625 
	C228.071503,179.640625 232.458038,179.640625 236.999512,179.640625 
	C236.999512,167.997131 236.895920,156.710846 237.069183,145.428802 
	C237.114990,142.445816 236.012650,141.605591 232.397873,142.000000 
M189.001419,177.294205 
	C189.793060,178.194427 190.530365,179.806610 191.385727,179.871872 
	C195.129227,180.157547 198.906952,179.994873 202.744354,179.994873 
	C202.744354,167.097412 202.744354,154.733063 202.744354,142.273499 
	C198.100189,142.273499 193.715820,142.273499 189.000137,142.273499 
	C189.000137,153.804855 189.000137,165.065506 189.001419,177.294205 
z"/>
<path fill="#FDFEFE" opacity="1.000000" stroke="none" 
	d="
M1691.758057,205.140717 
	C1690.619263,213.925690 1690.602905,222.626083 1687.930542,230.415314 
	C1686.275024,235.241150 1681.055054,239.325226 1676.591064,242.586777 
	C1670.783447,246.829941 1664.238403,250.117554 1657.832275,253.476196 
	C1644.969971,260.219818 1630.795410,261.190491 1617.114502,258.966461 
	C1606.566162,257.251648 1596.119141,252.376938 1592.170776,240.446198 
	C1590.930664,236.699081 1589.686523,232.823502 1589.369141,228.931274 
	C1588.896729,223.138229 1589.488647,217.265686 1589.188965,211.449539 
	C1588.734375,202.626099 1592.255371,194.735275 1594.768799,186.665848 
	C1597.915527,176.562881 1604.123657,168.173615 1612.037842,161.282745 
	C1618.630371,155.542526 1626.004395,151.332367 1634.641113,148.553696 
	C1642.445435,146.042801 1650.026978,145.642609 1657.865967,145.762390 
	C1666.880737,145.900131 1674.625000,149.669357 1681.130371,155.558426 
	C1685.338135,159.367538 1689.014160,163.877731 1692.340576,168.497101 
	C1693.922607,170.694061 1694.880127,173.894791 1694.823364,176.613647 
	C1694.656006,184.609222 1693.897461,192.596161 1693.221802,200.573898 
	C1693.103516,201.970978 1692.264771,203.307022 1691.758057,205.140717 
z"/>
<path fill="#FDFEFE" opacity="1.000000" stroke="none" 
	d="
M895.817322,254.891541 
	C882.162415,260.205994 868.916321,261.516815 855.074524,256.502991 
	C842.360779,251.897736 835.443909,242.591873 831.843933,230.402451 
	C830.039185,224.291702 828.025513,217.651550 828.700867,211.537445 
	C829.722961,202.284363 830.689270,192.946106 834.379333,183.892532 
	C837.798584,175.503540 842.271790,168.430115 848.453735,162.074158 
	C854.613831,155.740662 862.030273,151.073898 870.395569,149.302750 
	C878.809326,147.521332 887.903931,146.419800 896.269531,147.743164 
	C903.055969,148.816696 909.787415,153.138626 915.523071,157.394699 
	C931.018127,168.892746 934.293396,185.770599 932.123169,203.450546 
	C930.655762,215.404404 926.719177,226.827347 918.864807,237.000473 
	C912.584290,245.135010 905.086731,250.555862 895.817322,254.891541 
z"/>
<path fill="#FFFFFF" opacity="1.000000" stroke="none" 
	d="
M165.865265,142.000061 
	C168.997238,141.609558 170.115829,142.429550 170.069534,145.422531 
	C169.895050,156.705124 169.999496,167.992035 169.999496,179.638397 
	C165.133850,179.638397 160.413330,179.638397 155.343597,179.638397 
	C155.343597,167.447296 155.343597,155.079971 155.343597,142.000000 
	C158.566299,142.000000 161.975555,142.000000 165.865265,142.000061 
z"/>
<path fill="#FFFFFF" opacity="1.000000" stroke="none" 
	d="
M232.875122,142.000076 
	C236.012650,141.605591 237.114990,142.445816 237.069183,145.428802 
	C236.895920,156.710846 236.999512,167.997131 236.999512,179.640625 
	C232.458038,179.640625 228.071503,179.640625 223.339722,179.640625 
	C223.339722,167.441025 223.339722,155.073441 223.339722,142.000000 
	C226.240677,142.000000 229.319275,142.000000 232.875122,142.000076 
z"/>
<path fill="#FFFFFF" opacity="1.000000" stroke="none" 
	d="
M189.000778,176.810181 
	C189.000137,165.065506 189.000137,153.804855 189.000137,142.273499 
	C193.715820,142.273499 198.100189,142.273499 202.744354,142.273499 
	C202.744354,154.733063 202.744354,167.097412 202.744354,179.994873 
	C198.906952,179.994873 195.129227,180.157547 191.385727,179.871872 
	C190.530365,179.806610 189.793060,178.194427 189.000778,176.810181 
z"/>
</svg>