<?xml version="1.0" encoding="utf-8"?>
<svg width="1211.956" height="314.34" viewBox="0 0 1211.956 314.34" fill="none" xmlns="http://www.w3.org/2000/svg">
  <g>
    <path d="M61.6739 187.055C55.306 184.998 48.4285 183.864 42.6791 180.688C31.5623 174.546 21.3383 166.752 14.7111 155.643C10.0147 147.77 6.63867 139.11 2.51831 130.115C2.0097 128.283 1.65607 127.136 1.30237 125.99C1.30237 125.99 1.26794 126.132 1.28406 125.713C0.866821 114.611 0.433411 103.928 0 93.2444C2.40485 71.8608 10.495 52.8858 24.4559 35.7656C24.9825 34.9053 25.1923 34.543 25.4021 34.1807C25.4022 34.1807 25.2172 34.1853 25.493 34.1691C25.9775 33.834 26.1862 33.5151 26.3949 33.1963C26.3949 33.1963 26.2264 33.1952 26.4972 33.1689C26.9747 32.8262 27.1814 32.5098 27.3882 32.1934C27.3882 32.1934 27.2235 32.1926 27.4934 32.1666C27.9635 31.8234 28.1637 31.5061 28.3639 31.1889C28.3639 31.1889 28.2156 31.1761 28.475 31.1425C28.936 30.7968 29.1378 30.4847 29.3396 30.1727C29.3396 30.1727 29.2042 30.1729 29.4689 30.1376C29.9347 29.7933 30.1358 29.4843 30.3369 29.1754C30.3369 29.1754 30.2046 29.1711 30.4669 29.1328C30.9337 28.7863 31.1381 28.4778 31.3424 28.1695C31.3424 28.1695 31.2042 28.1768 31.4761 28.1453C31.9532 27.8027 32.1584 27.4916 32.3635 27.1805C32.3635 27.1805 32.2129 27.1876 32.4872 27.1605C32.9661 26.8199 33.1708 26.5062 33.3755 26.1926C33.3755 26.1926 33.2216 26.1898 33.4911 26.1621C33.9654 25.8201 34.1701 25.5059 34.3748 25.1917C34.3748 25.1917 34.2205 25.1889 34.4915 25.1617C34.9686 24.8204 35.1748 24.5062 35.381 24.1919C35.3809 24.1919 35.2205 24.1967 35.4982 24.1743C35.9841 23.8359 36.1924 23.52 36.4008 23.204C36.4008 23.204 36.2303 23.1904 36.5016 23.172C36.9897 22.8385 37.2065 22.5236 37.4233 22.2086C37.4233 22.2086 37.2287 22.1735 37.5415 22.1658C38.1672 21.8314 38.4801 21.5048 38.793 21.1782C46.3009 16.3513 53.7635 11.4512 61.3537 6.75751C62.9281 5.78394 64.9575 5.50348 66.8094 5.02936C71.989 3.70294 77.1855 2.4422 83.2336 1.13733C85.8381 0.814941 87.575 0.322144 89.3319 0.235901C105.96 -0.579956 122.359 0.558044 138.197 6.22296C138.197 6.22296 138.184 6.16071 138.387 6.4212C139.448 6.94611 140.307 7.21051 141.167 7.47485C141.167 7.47485 141.138 7.28436 141.214 7.58948C141.922 8.05786 142.555 8.22119 143.188 8.38452C143.188 8.38452 143.163 8.23114 143.248 8.5304C143.948 9.02435 144.563 9.21906 145.179 9.41382C145.179 9.41382 145.155 9.24927 145.228 9.5592C145.914 10.1041 146.525 10.3391 147.137 10.574C154.957 16.3207 162.777 22.0673 170.565 27.7899C160.772 38.8322 151.66 49.1069 142.406 59.5406C121.024 36.514 96.8193 32.3124 69.0275 47.6378C68.3179 48.3775 68.0748 48.6836 67.8317 48.9896C67.8317 48.9896 68.072 48.8254 67.6952 48.8367C66.8985 49.2672 66.4786 49.6863 66.0588 50.1056C66.0588 50.1056 66.1676 50.1316 65.9076 50.1733C65.4431 50.527 65.2387 50.839 65.0343 51.1509C65.0343 51.1509 65.1835 51.1516 64.9131 51.1794C64.4388 51.5215 64.235 51.8356 64.0313 52.1498C64.0313 52.1498 64.1542 52.1249 63.8574 52.1831C63.0475 52.8546 62.5345 53.4678 62.0214 54.0809C62.0214 54.0809 62.1503 54.1113 61.8903 54.15C61.4315 54.5074 61.2327 54.8263 61.0339 55.1451C61.0339 55.1451 61.1783 55.1522 60.9142 55.1831C60.4586 55.5284 60.267 55.8429 60.0755 56.1573C60.0755 56.1573 60.1714 56.1417 59.8747 56.2502C58.7308 57.6028 57.8835 58.8471 57.0363 60.0913C57.0363 60.0913 57.1518 60.123 56.8955 60.1619C56.4673 60.5209 56.2954 60.8408 56.1235 61.1608C56.1235 61.1608 56.193 61.1492 55.9415 61.3036C55.4648 62.0254 55.2397 62.5927 55.0145 63.16C55.0145 63.16 55.1445 63.1377 54.8402 63.2148C54.0552 64.2365 53.5744 65.181 53.0937 66.1255C53.0937 66.1255 53.1679 66.123 52.9007 66.2608C52.4352 66.9868 52.2369 67.575 52.0387 68.1631C52.0387 68.1631 52.1579 68.1469 51.8618 68.238C51.3969 68.9404 51.228 69.5518 51.0592 70.1631C51.0592 70.1631 51.1632 70.1441 50.8608 70.2761C50.2963 71.2881 50.0342 72.1682 49.7721 73.0483C49.7721 73.0483 49.9546 72.9687 49.6492 73.1004C49.2097 73.8705 49.0754 74.509 48.9412 75.1474C48.9412 75.1474 49.1071 75.1229 48.7861 75.2284C48.1707 76.4779 47.8763 77.6218 47.5821 78.7658C47.5821 78.7658 47.6008 78.975 47.4281 79.1611C47.0545 80.2065 46.8536 81.0658 46.6526 81.9251C46.6526 81.9251 46.7662 82.088 46.5297 82.2515C45.668 86.6436 45.0427 90.8721 44.4175 95.1006C44.6841 101.527 44.9506 107.953 45.2936 115.173C46.2894 118.414 47.2089 120.862 48.1284 123.309C48.1284 123.309 48.1473 123.203 48.1501 123.545C48.7651 125.074 49.3773 126.262 49.9895 127.45C49.9895 127.45 50.0098 127.277 50.0152 127.616C50.7235 129.073 51.4264 130.189 52.1293 131.306C52.1293 131.306 52.1574 131.2 52.1893 131.476C52.5092 132.001 52.7971 132.25 53.0851 132.499C53.0851 132.499 53.0863 132.24 53.0474 132.553C53.3916 133.338 53.7747 133.81 54.1578 134.282C54.1578 134.282 54.1772 134.195 54.2087 134.463C54.5507 134.936 54.861 135.141 55.1713 135.346C55.1713 135.346 55.1771 135.192 55.2042 135.461C55.5469 135.934 55.8627 136.138 56.1785 136.341C56.1785 136.341 56.1804 136.187 56.2054 136.459C56.5461 136.936 56.8617 137.14 57.1773 137.345C57.1772 137.345 57.1739 137.188 57.1975 137.463C57.5386 137.938 57.8562 138.139 58.1738 138.34C58.1738 138.34 58.1777 138.193 58.2051 138.461C58.5496 138.921 58.8665 139.111 59.1834 139.302C59.1834 139.302 59.1671 139.202 59.2715 139.489C59.9465 140.04 60.5171 140.303 61.0877 140.566C61.0877 140.566 61.1198 140.308 61.1038 140.583C61.4535 141.016 61.8192 141.173 62.1849 141.33C62.1849 141.33 62.1651 141.215 62.2585 141.513C63.2933 142.289 64.2347 142.767 65.1761 143.245C65.1761 143.245 65.1757 143.176 65.3248 143.434C66.0486 143.882 66.6233 144.072 67.198 144.262C67.198 144.262 67.1809 144.187 67.3716 144.488C78.3596 149.385 89.5627 150.21 100.987 148.069C103.173 147.659 105.162 146.199 107.242 145.223C110.559 144.207 113.997 143.474 117.166 142.114C123.434 139.425 129.553 136.39 136.145 133.306C141.894 142.669 147.733 152.175 153.791 162.04C135.952 175.454 116.714 185.733 92.9847 187.671C82.0276 187.661 71.8507 187.358 61.6739 187.055C61.6739 187.055 61.6739 187.055 61.6739 187.055Z" fill="#1748AB" transform="translate(424 64)" />
    <path d="M0 73.4701C1.76721 66.868 2.92969 60.0265 5.42969 53.7147C10.3789 41.2202 17.3657 29.74 27.4594 20.7589C33.4867 15.3958 40.2065 10.3035 47.4725 6.94449C63.3363 -0.389191 80.3226 -2.28079 97.1121 3.03775C102.801 4.83987 107.295 10.4125 112.335 14.2623C113.435 15.1023 114.534 15.9435 115.633 16.7842C116.158 15.6817 116.838 14.6244 117.179 13.4673C117.952 10.8393 118.559 8.16226 120.048 5.42642C132.226 5.29092 143.591 5.2341 154.956 5.17728C154.564 9.82382 154.173 14.4704 153.518 19.814C151.217 33.8211 149.179 47.1312 147.142 60.4413C146.03 67.7972 144.917 75.1531 143.508 83.1358C141.849 92.6646 140.488 101.567 139.126 110.469C137.829 118.553 136.532 126.637 134.63 135.182C121.673 135.574 109.322 135.506 96.9714 135.438C97.5693 131.033 98.1675 126.629 98.8716 121.444C90.4041 125.989 83.1163 130.552 75.3052 133.889C69.1143 136.534 62.2817 137.677 54.8851 139.498C51.6846 139.546 49.333 139.583 46.9814 139.62C46.5452 139.558 46.109 139.497 45.1208 139.061C40.0487 137.852 35.5286 137.018 31.0083 136.185C31.0083 136.185 31.0298 136.372 30.9447 136.076C30.2286 135.636 29.5977 135.49 28.9668 135.345C28.9668 135.345 28.9833 135.462 28.8812 135.174C28.1792 134.685 27.579 134.484 26.9789 134.283C26.9789 134.283 26.9968 134.43 26.9132 134.13C26.2083 133.658 25.5872 133.487 24.9658 133.315C24.9658 133.315 24.9883 133.449 24.9088 133.145C23.8861 132.328 22.9429 131.816 21.9995 131.304C21.9995 131.304 22.0072 131.431 21.9316 131.134C21.2832 130.564 20.7103 130.29 20.1375 130.017C20.1375 130.017 20.1324 130.258 20.0978 129.991C19.6981 129.683 19.3333 129.641 18.9685 129.6C10.5959 122.138 5.47046 112.659 1.84363 101.4C1.30908 92.5839 0.88855 84.5523 0.435303 76.5226C0.377441 75.5002 0.14917 74.4874 0 73.4701C0 73.4701 0 73.4701 0 73.4701ZM98.9257 38.9464C98.6079 38.7707 98.2903 38.5951 97.9846 38.4898C97.9846 38.4898 98.0535 38.4713 97.6797 37.9793C97.1072 37.7571 96.5347 37.5349 95.9922 37.4505C95.9922 37.4505 96.1277 37.4121 95.8269 36.8339C95.2054 36.6624 94.584 36.4909 93.9866 36.4492C93.9866 36.4492 94.1145 36.4171 93.7058 35.7696C88.5176 34.1902 83.3838 31.954 77.1064 34.6413C76.175 34.9244 75.2605 35.3642 74.3096 35.4669C61.9192 36.8055 53.7573 44.492 48.0345 54.5045C42.6609 63.9061 40.7864 74.5744 42.0472 85.4428C42.7504 91.5041 44.4209 97.4124 50.9226 101.062C51.2673 101.241 51.6121 101.421 51.9385 101.516C51.9385 101.516 51.8545 101.538 52.2106 102.047C52.7944 102.229 53.3782 102.41 53.9436 102.518C53.9436 102.518 53.8711 102.54 54.3135 103.135C56.4968 103.729 58.6801 104.323 60.9631 104.761C60.9631 104.761 60.802 104.668 61.3269 105.364C66.9587 104.846 72.5906 104.328 78.0698 103.8C78.0698 103.8 78.1001 103.95 78.8398 103.825C79.9287 103.409 81.0175 102.992 81.9893 102.55C81.9893 102.55 81.9719 102.669 82.6189 102.551C83.1506 102.257 83.6826 101.963 84.0293 101.629C84.0293 101.629 84.009 101.817 84.6532 101.659C85.1919 101.35 85.7305 101.04 86.0723 100.66C86.0723 100.66 86.0281 100.865 86.6763 100.718C87.2012 100.378 87.7263 100.037 88.0532 99.6202C88.0532 99.6202 87.9973 99.8251 88.6827 99.6989C89.2224 99.3184 89.762 98.9379 90.9863 98.5812C92.6244 97.4953 94.6851 96.7353 95.8208 95.2622C99.1846 90.8996 105.568 88.5524 105.711 81.0165C106.443 74.1881 107.175 67.3597 108.001 60.0775C108.001 60.0775 108.009 59.6142 108.469 59.4331C108.829 59.246 108.931 58.9653 108.93 57.7446C109.231 50.98 106.432 45.6673 100.995 40.922C100.653 40.7204 100.31 40.5188 99.9736 40.4875C99.9736 40.4875 100.144 40.4792 99.9385 39.9354C99.6167 39.7335 99.2949 39.5316 98.98 39.4837C98.98 39.4837 99.1335 39.4731 98.9257 38.9464C98.9257 38.9464 98.9257 38.9464 98.9257 38.9464Z" fill="#1748AB" transform="translate(1057 113)" />
    <path d="M37.4761 181.021C40.7617 160.599 44.1057 140.185 47.2474 119.741C47.5786 117.586 47.1849 115.056 46.3419 113.026C36.0798 88.3125 25.6833 63.6548 15.2938 38.9945C10.2843 27.1041 5.1958 15.2471 0.212524 3.34595C-0.179688 2.40936 -0.0247803 1.24371 0.643066 0.155518C16.748 0.0857544 32.0857 0.0449219 47.4233 0.00415039C47.4233 0.00421143 47.8428 0.162354 48.1881 0.421387C48.8392 0.888855 49.145 1.09729 49.4508 1.30579C49.4508 1.30579 49.4175 1.1377 49.3992 1.48193C49.4866 2.25018 49.592 2.67426 49.6976 3.09833C58.2188 26.7701 66.7397 50.442 75.8442 75.7344C93.0566 49.7778 109.453 25.0515 126.624 0.225464C143.073 0.0839233 158.747 0.0419312 174.421 0C174.203 1.05841 174.307 2.35809 173.721 3.14026C156.075 26.6813 138.412 50.2096 120.637 73.6538C111.039 86.3146 101.427 98.9754 91.4343 111.323C86.73 117.137 87.8986 124.027 86.1938 131.154C84.2073 143.276 82.4541 154.68 80.7007 166.083C79.9458 170.81 79.1909 175.537 77.9783 180.772C64.1721 181.193 50.8241 181.107 37.4761 181.021C37.4761 181.021 37.4761 181.021 37.4761 181.021Z" fill="#1748AB" transform="translate(921 67)" />
    <path d="M139.071 86.1038C134.763 93.7789 131.203 102.024 125.916 108.951C121.57 114.646 115.218 118.828 109.677 123.589C100.722 131.283 89.2308 133.577 78.6196 137.584C74.6234 139.094 69.7306 138.359 65.2441 138.405C59.8118 138.461 54.3757 138.146 48.9434 138.199C40.6162 138.28 33.631 134.351 26.8479 130.42C21.8588 127.529 17.6022 123.374 12.9202 119.188C12.5388 118.365 12.2565 118.135 11.9742 117.906C11.9742 117.906 11.9557 118.115 11.9771 117.813C11.6375 117.029 11.2766 116.546 10.9156 116.063C10.9156 116.063 10.8989 116.141 10.866 115.872C10.5248 115.399 10.2163 115.193 9.90784 114.988C9.90784 114.988 9.90161 115.153 9.89868 114.865C9.55957 114.088 9.22327 113.599 8.88696 113.11C8.88696 113.11 8.86133 113.153 8.82983 112.844C8.17688 111.707 7.5553 110.88 6.93384 110.052C6.93384 110.052 6.90723 110.14 6.89954 109.866C6.6615 109.314 6.43091 109.036 6.20032 108.759C6.20032 108.759 6.17444 108.969 6.1991 108.631C5.78638 107.556 5.34875 106.82 4.91125 106.084C4.91125 106.084 4.88831 106.15 4.8905 105.852C4.56604 105.057 4.23926 104.561 3.91254 104.065C3.91254 104.065 3.89301 104.149 3.91302 103.831C3.64105 102.978 3.349 102.443 3.05701 101.909C3.05701 101.909 3.01062 102.092 3.02203 101.72C2.36249 99.213 1.69165 97.0789 1.02075 94.9448C1.02075 94.9448 0.978271 95.1172 0.993347 94.6905C0.642212 88.8041 -0.149231 83.3309 0.0246582 77.8885C0.213867 71.965 1.29938 66.0701 1.99408 60.1627C1.99408 60.1627 1.90009 60.1882 2.19318 59.9849C3.05194 57.5958 3.61768 55.4102 4.18335 53.2245C4.18335 53.2245 4.01758 53.2341 4.29272 53.1675C4.78137 52.1563 4.99512 51.2118 5.20874 50.2672C16.1483 26.2444 34.3273 10.5334 59.6671 3.27881C80.8065 -2.77313 100.943 -0.749207 119.409 11.8813C122.8 14.2007 125.712 17.2199 129.282 20.3528C130.3 21.4105 130.881 22.0316 131.463 22.6526C131.463 22.6526 131.371 22.5316 131.487 22.8646C132.324 23.9196 133.045 24.6416 133.767 25.3636C133.767 25.3636 133.801 25.2089 133.812 25.5065C134.157 26.3026 134.491 26.801 134.826 27.2994C134.826 27.2994 134.847 27.198 134.872 27.4769C135.186 27.9999 135.476 28.2438 135.766 28.4879C135.766 28.4879 135.781 28.2349 135.73 28.5577C136.044 29.3735 136.409 29.8665 136.773 30.3595C136.773 30.3595 136.806 30.2063 136.806 30.5131C137.139 31.3185 137.473 31.8173 137.806 32.316C137.806 32.316 137.837 32.1921 137.839 32.5042C138.149 33.3328 138.457 33.8492 138.766 34.3658C138.766 34.3658 138.793 34.2063 138.796 34.5833C139.781 37.7682 140.762 40.5762 141.744 43.3842C141.744 43.3842 141.786 43.2126 141.776 43.6308C142.157 49.4516 143.012 54.8706 142.822 60.2526C142.574 67.2742 141.497 74.2665 140.777 81.2714C140.777 81.2714 140.685 81.3747 140.431 81.6563C139.808 83.3266 139.439 84.7151 139.071 86.1038C139.071 86.1038 139.071 86.1038 139.071 86.1038ZM44.6254 93.3655C44.6254 93.3655 44.4493 93.4731 44.6072 93.8817C44.6072 93.8817 44.9375 94.1693 45.0991 94.8211C48.2363 97.2926 51.3737 99.7641 54.9478 102.824C55.8896 103.084 56.8315 103.344 57.7926 103.431C57.7926 103.431 57.6184 103.448 58.1588 104.046C64.5348 105.807 70.8413 105.942 76.9083 103.21C76.9083 103.21 76.8853 103.331 77.605 103.259C78.4506 102.958 79.2961 102.657 79.9565 102.312C79.9565 102.312 79.9363 102.501 80.5774 102.345C81.1276 102.052 81.6777 101.759 82.0406 101.378C82.0406 101.378 81.9879 101.578 82.642 101.452C83.396 101.023 84.15 100.594 84.8838 100.155C84.8838 100.155 84.8717 100.174 85.4567 100.121C85.6964 99.8196 85.9362 99.5181 86.8547 99.1959C89.8794 96.2856 92.9039 93.3754 96.4875 90.1487C96.798 89.5903 97.1084 89.0319 97.4192 88.5281C97.4192 88.5281 97.4696 88.5069 97.8812 88.0507C98.3474 87.1371 98.8136 86.2236 99.0967 85.2973C99.0967 85.2973 99.1195 85.4793 99.6851 85.078C100.187 83.789 100.689 82.5 101.006 81.231C101.006 81.231 101.046 81.4128 101.605 81.0721C101.724 80.4366 101.842 79.8011 101.892 79.1825C101.892 79.1825 101.915 79.2493 102.487 78.7272C103.823 72.2109 106.387 65.7877 103.954 59.1422C103.954 59.1422 104.109 59.1575 104.032 58.3989C103.766 57.2266 103.501 56.0544 103.25 55.0353C103.25 55.0353 103.393 54.9779 103.205 54.2713C102.559 52.7855 101.913 51.2997 101.199 49.974C101.199 49.974 101.372 49.9899 101.201 49.3194C100.791 48.7939 100.38 48.2685 99.9669 47.0783C96.1503 43.7751 92.696 39.8713 88.4374 37.3001C80.7942 32.6855 72.6552 35.042 64.5497 36.7346C54.6204 38.8082 49.563 46.0392 44.2075 54.2571C43.6085 55.8434 43.0096 57.4297 42.5927 59.0039C42.5927 59.0039 42.5338 58.8312 42.0204 59.3141C41.854 60.2457 41.6876 61.1773 41.707 62.043C41.707 62.043 41.6139 61.8692 41.0096 62.409C39.6282 70.7869 38.342 79.162 41.7642 87.2262C41.7642 87.2262 41.5817 87.1985 41.7157 87.883C42.0861 88.6852 42.4565 89.4875 42.8534 90.1995C42.8534 90.1995 42.7616 90.1786 42.8341 90.8148C43.1564 91.3192 43.4785 91.8236 43.8242 92.2131C43.8242 92.2131 43.7076 92.1999 43.8717 92.7746C44.1471 93.0359 44.4224 93.2973 44.6254 93.3655C44.6254 93.3655 44.6254 93.3655 44.6254 93.3655Z" fill="#1748AB" transform="translate(592 113)" />
    <path d="M71.9351 0C71.5325 4.91138 71.3912 9.86188 70.662 14.7243C69.7178 21.0209 68.3046 27.2473 67.041 34.3412C67.7473 35.5475 68.5046 36.2336 69.2644 36.2365C77.4858 36.2675 85.7078 36.191 93.9294 36.1438C93.9034 39.866 94.2324 43.6327 93.7722 47.3004C92.9884 53.5482 91.7084 59.7339 89.8225 66.119C80.0079 66.4172 71.0076 66.5421 61.7566 66.9389C59.4043 79.2113 57.3027 91.2118 55.201 103.212C54.1018 111.354 52.6779 119.469 52.0094 127.645C51.5038 133.83 53.3171 135.548 59.3151 135.21C65.0109 134.888 70.67 133.918 77.0928 133.144C76.2439 138.039 75.3046 143.377 74.3965 148.721C73.8765 151.781 72.8965 154.873 73.0339 157.909C73.2427 162.516 70.0823 164.393 67.0065 165.9C64.135 167.308 60.7429 167.779 57.5222 168.317C52.6487 169.132 47.7264 170.166 42.8226 170.177C33.2736 170.2 24.8191 166.976 18.0167 159.286C17.7008 158.419 17.4773 158.143 17.2539 157.868C17.2539 157.868 17.0303 158.035 17.1434 157.756C16.8365 156.865 16.4166 156.254 15.9966 155.643C15.9966 155.643 16.106 155.486 16.0206 155.104C15.6108 154.213 15.2863 153.703 14.9618 153.193C14.9618 153.193 14.9434 153.277 14.9603 152.943C14.6406 151.802 14.3038 150.996 13.967 150.191C13.967 150.191 13.9445 150.27 13.9603 149.846C13.6344 144.313 13.0251 139.205 13.0228 134.097C13.0203 128.499 13.5779 122.901 13.8914 117.303C15.566 108.193 17.3071 99.0935 18.8895 89.9669C19.786 84.7963 20.4222 79.5806 21.4401 73.7497C21.9124 71.2368 22.1202 69.3593 22.3643 67.1557C14.7656 67.1557 7.38281 67.1557 0 67.1557C1.13257 59.0217 2.27185 50.8886 3.39258 42.753C3.64063 40.9525 3.82324 39.1431 4.50488 36.856C12.8798 36.3743 20.7856 36.3743 29.0544 36.3743C29.0544 33.8419 29.0544 32.0349 29.0544 30.2278C30.7289 21.6486 32.4033 13.0694 34.3448 3.85138C34.7576 2.24445 34.9032 1.27643 35.0487 0.308411C35.0487 0.308411 35.5149 0.210083 36.1963 0.200378C48.5635 0.127136 60.2493 0.0635986 71.9351 0C71.9351 0 71.9351 0 71.9351 0Z" fill="#1748AB" transform="translate(747 81)" />
    <path d="M58.0059 0C58.3074 0.262756 58.6091 0.525574 58.9451 1.48804C57.4301 11.8804 55.8806 21.573 54.3313 31.2656C52.8416 41.329 51.3518 51.3923 49.5581 62.1619C47.2412 76.0106 45.2285 89.1531 43.2157 102.296C41.7843 111.319 40.3528 120.343 38.4897 129.914C25.3793 130.411 12.7002 130.361 0.0212402 130.311C0.0212402 130.311 -0.0102539 130.34 0.00354004 129.919C1.62109 119.137 3.22473 108.776 4.82837 98.4141C4.9071 97.6104 4.98584 96.8066 5.29016 95.3219C6.01782 91.7362 6.56201 88.8381 7.01465 85.9257C9.57849 69.4246 12.1205 52.9202 14.6699 36.4169C16.455 24.686 18.24 12.955 20.4836 0.719727C33.2968 0.143616 45.6514 0.0718384 58.0059 0C58.0059 0 58.0059 0 58.0059 0Z" fill="#1748AB" transform="translate(841 118)" />
    <path d="M14.738 44.9545C13.6282 44.2831 13.0496 43.3259 12.2495 43.0751C2.60083 40.0496 -0.482178 33.2682 0.0595703 23.6194C0.884888 8.92157 18.2892 -3.62305 32.0848 0.95874C43.0234 4.59161 47.801 15.0125 44.1204 25.7982C40.6082 36.0905 28.3607 46.5425 14.738 44.9545C14.738 44.9545 14.738 44.9545 14.738 44.9545Z" fill="#1748AB" transform="translate(864 59)" />
    <path d="M16.3116 84.6542C16.3116 84.6542 16.4518 84.4936 16.6718 84.2334C17.0456 83.5502 17.1994 83.1273 17.3532 82.7043C17.3532 82.7043 17.2858 82.7226 17.5419 82.5449C18.1333 81.5712 18.4688 80.7751 18.8042 79.979C18.8041 79.979 18.6421 79.9063 18.8909 79.8636C19.2425 79.4519 19.3453 79.0829 19.4481 78.7138C19.4481 78.7138 19.3245 78.7328 19.6303 78.6402C20.2016 77.9458 20.467 77.344 20.7325 76.7422C29.7441 63.1831 39.5919 50.2666 52.0515 39.6943C59.22 33.6115 67.3166 28.6318 74.5925 22.6643C85.5298 13.694 99.0474 10.7656 111.778 5.97589C114.576 4.92325 117.584 4.42905 121.305 3.5553C132.282 2.20361 142.454 -0.0412598 152.617 0.000579834C165.481 0.0535278 178.338 1.96661 191.198 3.07742C191.198 3.07742 191.153 2.92612 191.326 3.25391C194.404 4.22491 197.308 4.8681 200.212 5.51129C217.067 10.2366 232.27 18.2723 246.388 28.5C263.114 40.6171 277.083 55.321 288.109 72.8881C268.526 84.2913 248.93 95.7018 228.972 107.323C222.987 97.8893 215.596 89.1647 205.869 82.4992C195.529 75.4132 184.315 70.9446 171.859 69.725C163.846 68.9404 155.809 67.9632 147.781 67.9403C143.369 67.9278 138.916 69.5731 134.546 70.7159C123.478 73.6099 112.914 77.9661 103.914 84.9868C89.9615 95.8698 79.332 109.452 73.8601 126.592C72.2373 131.675 70.7844 136.812 69.0052 142.622C68.3495 145.738 67.511 148.174 67.6148 150.57C67.9377 158.025 68.6177 165.464 69.1592 172.909C69.1592 172.909 69.2018 172.743 69.1827 173.127C69.5042 174.751 69.8446 175.989 70.185 177.228C73.3515 192.64 78.9192 206.872 90.319 218.242C94.3096 222.222 97.8807 226.767 102.361 230.084C115.186 239.578 129.639 245.291 145.636 246.739C150.052 247.138 154.572 248.094 158.884 247.543C166.159 246.613 173.28 244.539 180.514 243.206C197.096 240.152 209.657 230.133 222.06 219.716C223.124 218.823 225.621 218.148 226.509 218.754C243.434 230.307 260.218 242.067 277.022 253.797C277.276 253.974 277.415 254.315 277.865 254.935C269.627 264.563 261.917 274.785 251.027 281.954C242.282 287.711 233.814 293.92 224.841 299.29C220.587 301.836 215.474 302.989 210.693 304.604C201.806 307.607 192.959 310.782 183.926 313.272C180.236 314.289 176.107 313.709 171.481 314.114C159.118 314.359 147.452 314.347 135.786 314.334C125.688 312.456 115.4 311.257 105.55 308.493C97.0701 306.113 88.4951 302.932 81.0005 298.391C58.0807 284.503 37.8671 267.673 23.088 244.621C11.751 226.937 4.74948 207.992 1.13455 186.677C0.673431 170.476 0.3367 155.106 0 139.735C0.835297 134.098 1.67062 128.461 2.76822 122.224C3.18338 120.653 3.33624 119.683 3.48911 118.713C3.48907 118.713 3.34326 118.736 3.647 118.56C4.43256 116.163 4.91434 113.942 5.39612 111.72C5.39612 111.72 5.30899 111.738 5.58398 111.56C6.02545 110.496 6.19193 109.61 6.3584 108.724C6.3584 108.724 6.29013 108.734 6.55609 108.534C7.00418 107.458 7.18634 106.582 7.36847 105.705C7.36847 105.705 7.29532 105.724 7.57214 105.543C8.03293 104.48 8.21689 103.596 8.40085 102.712C8.40082 102.712 8.30908 102.731 8.59933 102.57C9.0979 101.512 9.30624 100.615 9.51462 99.7192C9.51459 99.7192 9.36105 99.7429 9.67062 99.6351C10.245 98.6425 10.5099 97.7578 10.7747 96.8731C10.7747 96.8731 10.5988 96.9193 10.8749 96.7698C11.2834 95.9898 11.416 95.3594 11.5485 94.7289C11.5485 94.7289 11.3767 94.755 11.679 94.6763C12.1395 93.9729 12.2977 93.3483 12.4558 92.7237C12.4558 92.7237 12.3323 92.7419 12.6132 92.6312C13.0504 91.9161 13.2067 91.3115 13.3629 90.707C13.3629 90.707 13.2935 90.725 13.5664 90.5352C14.6635 88.4483 15.4876 86.5512 16.3116 84.6542C16.3116 84.6542 16.3116 84.6542 16.3116 84.6542Z" fill="#1748AB" />
    <path d="M48.097 7.5145C50.5888 5.18741 56.4603 0.00598145 56.5654 0.00427246C59.0765 -0.0368652 61.6567 0.226471 64.0465 0.504303C64.0465 0.504303 64.9935 0.701843 65.0661 1.0043C65.7524 1.18442 66.035 1.23532 66.0342 1.5043C66.3744 1.96127 66.7155 2.48694 67.0565 2.6749C67.0565 2.6749 69.7345 5.47144 70.052 5.67636C70.052 5.67636 70.73 6.47971 71.0436 6.68753C71.0436 6.68753 71.7188 7.48901 72.0333 7.69708C72.0333 7.69708 72.7306 8.47275 73.0477 8.67795C73.0477 8.67795 73.733 9.47275 74.0458 9.6795C74.0458 9.6795 74.7332 10.4723 75.0465 10.6783C75.0465 10.6783 76.7326 12.4716 77.0479 12.6754C77.0479 12.6754 78.7264 14.4762 79.0428 14.679C79.0428 14.679 79.7269 15.4761 80.0432 15.6794C80.0432 15.6794 80.7255 16.4746 81.0408 16.6781C81.0408 16.6781 81.7365 17.4673 82.0494 17.6748C82.0494 17.6748 82.7326 18.4714 83.0449 18.6777C83.0449 18.6777 83.7266 19.4854 84.0367 19.6974C84.0367 19.6974 84.7245 20.4888 85.04 20.6981C85.04 20.6981 85.7203 21.4908 86.0362 21.6989C86.0362 21.6989 86.7077 22.5138 87.0171 22.7367C86.9991 23.0604 88.7242 24.4909 89.0425 24.6983C89.0425 24.6983 89.7251 25.4804 90.0403 25.6872C90.0403 25.6872 90.74 26.4625 91.0565 26.6649C91.0565 26.6649 91.7261 27.4771 92.0386 27.6829C92.0386 27.6829 92.7323 28.4725 93.0453 28.6794C93.0453 28.6794 93.735 29.4708 94.0491 29.6762C94.0491 29.6762 94.7277 30.4772 95.0409 30.6835C95.0409 30.6835 95.729 31.4768 96.0419 31.6847C96.0419 31.6847 96.7158 32.4931 97.0232 32.7105C97.0115 33.0373 98.7363 34.4747 99.0532 34.678C99.0532 34.678 99.72 35.4896 100.032 35.6992C100.032 35.6992 100.721 36.4887 101.034 36.6987C101.034 36.6987 101.728 37.4771 102.044 37.6818C102.044 37.6818 102.731 38.4748 103.044 38.682C103.044 38.682 103.731 39.4751 104.043 39.6825C104.043 39.6825 104.731 40.4748 105.043 40.6823C105.043 40.6823 107.736 43.4721 108.054 43.6768C108.054 43.6768 108.725 44.4809 109.04 44.6865C109.04 44.6865 109.728 45.4737 110.044 45.676C110.044 45.676 110.724 46.4785 111.039 46.6822C111.039 46.6822 111.729 47.4753 112.043 47.6804C112.043 47.6804 112.728 48.4724 113.043 48.6762C113.043 48.6762 113.741 49.4632 114.054 49.6691C114.054 49.6691 114.73 50.4743 115.043 50.6793C115.043 50.6793 115.729 51.4751 116.043 51.6809C116.043 51.6809 116.731 52.4721 117.045 52.6775C117.045 52.6775 117.733 53.472 118.047 53.6771C118.047 53.6771 118.724 54.4794 119.038 54.6848C119.038 54.6848 119.732 55.4741 120.046 55.6807C120.046 55.6807 121.374 57.1623 121.99 57.6723C121.99 57.6723 122.001 57.5598 122.023 57.8004C122.12 58.1916 122.194 58.3422 122.269 58.4927C125.414 66.6018 122.797 73.8587 115.527 79.5452C106.684 86.4627 98.1608 93.7944 89.5759 101.038C81.6674 107.711 73.9032 114.555 65.9907 121.223C62.2108 124.409 58.1873 127.303 54.3617 130.437C50.9429 133.236 46.7186 133.538 43.4113 131.759C39.7147 129.77 37.243 126.087 38.0101 121.081C38.9092 115.216 39.3854 109.285 39.8756 102.539C27.1683 101.583 14.6304 101.47 2.09265 101.356C-2.27722 97.236 1.57971 92.6531 1.41351 88.3001C1.35181 86.6823 1.88165 85.0417 2.43323 82.7374C3.06152 80.1207 3.38629 78.1762 3.737 76.2363C6.25165 62.326 8.77161 48.4167 11.2898 34.5071C11.2898 34.5071 11.1257 34.5304 11.4122 34.4775C12.2 33.8041 12.1812 33.7639 12.4852 33.4219C12.7428 33.1322 12.7013 33.1836 13.2026 32.563C13.2026 32.563 13.6253 32.2566 14.0659 32.0047C15.0884 31.4201 16.2581 30.5392 18.0659 30.5043C26.2936 30.3455 27.98 30.8106 36.566 30.7941C37.4114 30.8261 42.7203 30.7139 43.4113 30.7941C43.9876 30.7802 44.858 30.604 45.066 30.5043C45.319 30.3831 47.4204 31.6776 47.9246 31.0471C48.0694 22.9017 48.0832 15.2081 48.097 7.5145C48.097 7.5145 48.097 7.5145 48.097 7.5145Z" fill="#1748AB" transform="translate(262 92)" />
    <path d="M0 4.63596C1.45642 3.30206 2.91284 1.96817 5.12756 0.475677C7.92993 0.195679 9.974 0.0742493 12.4392 0.109894C15.5342 0.162994 18.2082 0.059082 21.2352 0.0480042C22.0671 0.0789795 22.546 0.0170288 23.4326 0.109589C25.856 0.164581 27.8715 0.065094 30.3489 0.0610046C35.5463 0.0915833 40.2816 0.0267334 45.386 0.117493C46.8025 0.176117 47.8499 0.0791321 49.3596 0.0780334C55.2201 0.103424 60.6183 0.032959 66.443 0.116669C69.8738 0.165894 72.8779 0.0610352 76.3037 0.051178C78.1582 0.0812378 79.5912 0.0162659 81.4644 0.107391C89.7762 0.138092 97.6479 0.0127258 105.937 0C110.873 0.187195 115.39 0.261749 119.907 0.336304C126.556 2.7897 123.999 8.54825 123.697 12.7802C122.964 23.0729 121.294 33.3004 119.957 43.5482C118.996 50.9093 117.962 58.261 116.652 66.1465C115.826 67.2968 115.309 67.9174 114.792 68.538C114.792 68.538 114.932 68.5879 114.651 68.5944C113.867 68.9279 113.364 69.255 112.86 69.5822C112.86 69.5822 112.949 69.6035 112.488 69.5914C75.923 69.5272 39.8177 69.4751 3.7124 69.423C2.70129 68.2172 1.69019 67.0114 0.340698 65.2164C0.00152588 44.6301 0.000732422 24.6331 0 4.63596C0 4.63596 0 4.63596 0 4.63596ZM36.2877 29.1235C36.2877 24.3674 36.2877 19.6114 36.2877 14.8701C30.6846 14.8701 25.4404 14.8701 20.2216 14.8701C20.2216 28.2155 20.2216 41.2838 20.2216 54.3552C25.7609 54.3552 31.0248 54.3552 36.2856 54.3552C36.2856 46.1041 36.2856 38.1105 36.2877 29.1235C36.2877 29.1235 36.2877 29.1235 36.2877 29.1235ZM69.9592 33.1058C69.9592 27.0128 69.9592 20.9198 69.9592 14.8983C64.3041 14.8983 59.238 14.8983 54.2471 14.8983C54.2471 28.257 54.2471 41.3188 54.2471 54.3116C59.6053 54.3116 64.672 54.3116 69.9589 54.3116C69.9589 47.3807 69.9589 40.7432 69.9592 33.1058C69.9592 33.1058 69.9592 33.1058 69.9592 33.1058ZM103.187 54.0189C103.187 40.9593 103.187 27.8997 103.187 14.8711C98.019 14.8711 93.1075 14.8711 88.2151 14.8711C88.2151 28.2032 88.2151 41.2607 88.2151 54.5604C93.1025 54.5604 97.7323 54.5604 103.187 54.0189C103.187 54.0189 103.187 54.0189 103.187 54.0189Z" fill="#1748AB" transform="translate(131 124)" />
    <path d="M0.346313 24.338C0.0178833 23.9732 0.0197754 23.7246 0 23.2907C2.91199 23.1959 2.93896 21.2474 2.96991 19.1165C3.06274 12.7238 3.51825 6.35709 3.96558 0C4.24518 7.72824 4.34937 3.99203 4.46558 6.00504C4.79645 11.734 4.80652 15.3974 4.46558 23.5266C3.76056 24.0418 2.54504 24.1214 2.16724 24.2011C1.6795 24.2855 1.19177 24.37 0.346313 24.338C0.346313 24.338 0.346313 24.338 0.346313 24.338Z" fill="#1748AB" transform="translate(306 100)" />
    <path d="M7.37524 2.02454C5.17743 2.08038 2.78766 1.80258 0 1.63364C2.10944 -1.17117 4.6452 0.090332 7.37524 2.02454C7.37524 2.02454 7.37524 2.02454 7.37524 2.02454Z" fill="#1748AB" transform="translate(319 91)" />
  </g>
</svg>