<svg version="1.1" id="Layer_1" xmlns="http://www.w3.org/2000/svg" xmlns:xlink="http://www.w3.org/1999/xlink" x="0px" y="0px"
	 width="100%" viewBox="0 0 432 364" enable-background="new 0 0 432 364" xml:space="preserve">
<path fill="#174AAB" opacity="1.000000" stroke="none" 
	d="
M250.000000,365.000000 
	C166.666672,365.000000 83.833336,365.000000 1.000000,365.000000 
	C1.000000,243.666672 1.000000,122.333336 1.000000,1.000000 
	C145.000000,1.000000 289.000000,1.000000 433.000000,1.000000 
	C433.000000,122.333336 433.000000,243.666672 433.000000,365.000000 
	C372.166656,365.000000 311.333344,365.000000 250.000000,365.000000 
M391.990997,159.012878 
	C391.990997,159.012878 391.983673,159.168610 391.717102,158.677780 
	C391.422028,158.457123 391.126923,158.236481 390.985596,158.014877 
	C390.985596,158.014877 390.983459,158.168610 390.718323,157.676910 
	C390.423126,157.456558 390.127930,157.236191 389.985657,157.014786 
	C389.985657,157.014786 389.983673,157.167694 389.719421,156.675583 
	C389.423920,156.455719 389.128387,156.235855 388.985840,156.014328 
	C388.985840,156.014328 388.984619,156.167282 388.716003,155.674591 
	C388.416504,155.456863 388.116974,155.239151 387.980927,155.021667 
	C387.980927,155.021667 387.976532,155.185059 387.716675,154.683670 
	C387.417694,154.462341 387.118683,154.241013 386.981171,154.023438 
	C386.981171,154.023438 386.973114,154.184738 386.727020,153.676804 
	C386.427185,153.458359 386.127350,153.239929 385.980194,153.006760 
	C385.980194,153.006760 385.992371,153.159683 385.708618,152.673920 
	C385.403351,152.462753 385.098083,152.251587 384.359924,151.950531 
	C384.078186,151.780869 383.944977,151.531769 383.705048,150.701859 
	C383.414215,150.471527 383.123383,150.241196 382.988525,150.014725 
	C382.988525,150.014725 382.981995,150.170609 382.721008,149.676361 
	C382.425995,149.455826 382.130981,149.235291 381.986969,149.017944 
	C381.986969,149.017944 381.980682,149.168839 381.726807,148.669952 
	C381.429047,148.452820 381.131287,148.235703 380.982849,148.010498 
	C380.982849,148.010498 380.988190,148.159958 380.717926,147.673737 
	C380.423645,147.453979 380.129333,147.234222 379.986908,147.013290 
	C379.986908,147.013290 379.985321,147.165146 379.718719,146.676025 
	C379.425354,146.455109 379.132019,146.234177 378.987671,146.019608 
	C378.987671,146.019608 378.978149,146.168472 378.732513,145.666855 
	C378.435791,145.450668 378.139038,145.234497 377.983887,145.004532 
	C377.983887,145.004532 377.995667,145.146271 377.708649,144.672546 
	C377.414673,144.452759 377.120667,144.232956 376.986267,144.014725 
	C376.986267,144.014725 376.981812,144.174255 376.709991,143.682800 
	C376.412537,143.461288 376.115112,143.239761 375.985291,143.016052 
	C375.985291,143.016052 375.984344,143.183701 375.704315,142.684845 
	C375.393127,142.472061 375.081970,142.259293 374.343018,141.965485 
	C374.062164,141.800140 373.932648,141.554886 373.700989,140.718216 
	C373.407562,140.483154 373.114166,140.248108 372.986237,140.018921 
	C372.986237,140.018921 372.977173,140.184265 372.717651,139.681671 
	C372.416351,139.462616 372.115082,139.243561 371.978638,139.017792 
	C371.978638,139.017792 371.981384,139.182755 371.711548,138.687500 
	C371.413300,138.464996 371.115051,138.242493 370.981201,138.019012 
	C370.981201,138.019012 370.978363,138.183395 370.717560,137.686844 
	C370.424194,137.462738 370.130798,137.238647 369.986481,137.013412 
	C369.986481,137.013412 369.984833,137.162445 369.721588,136.672562 
	C369.426971,136.453156 369.132385,136.233749 368.988068,136.010239 
	C368.988068,136.010239 368.989868,136.160568 368.712097,135.681976 
	C368.424347,135.456268 368.136597,135.230545 367.995544,135.017899 
	C367.995544,135.017899 367.980377,135.164398 367.730438,134.665085 
	C367.433258,134.449081 367.136047,134.233093 366.984833,134.016785 
	C366.984833,134.016785 366.981903,134.162689 366.730835,133.664368 
	C366.433655,133.448807 366.136475,133.233261 365.984161,133.017090 
	C365.984161,133.017090 365.981384,133.161926 365.732147,132.662598 
	C365.434418,132.447998 365.136658,132.233383 364.983002,132.017563 
	C364.983002,132.017563 364.980682,132.161621 364.732758,131.660370 
	C364.433014,131.447418 364.133301,131.234467 363.979675,131.011353 
	C363.979675,131.011353 363.986603,131.157639 363.723022,130.667648 
	C363.427185,130.450623 363.131378,130.233597 362.985016,130.012009 
	C362.985016,130.012009 362.986816,130.161545 362.719696,129.672897 
	C362.424835,129.453613 362.130005,129.234344 361.986267,129.012283 
	C361.986267,129.012283 361.986420,129.163452 361.717529,128.675400 
	C361.422821,128.455414 361.128082,128.235443 360.986145,128.012634 
	C360.986145,128.012634 360.986267,128.165451 360.714905,127.679329 
	C360.421570,127.457466 360.128204,127.235603 359.988129,127.011139 
	C359.988129,127.011139 359.988342,127.164398 359.708496,126.681381 
	C359.414520,126.458534 359.120544,126.235695 358.987946,126.022705 
	C358.987946,126.022705 358.974640,126.183838 358.722076,125.679199 
	C358.422394,125.459969 358.122742,125.240738 357.980072,125.014404 
	C357.980072,125.014404 357.983704,125.171555 357.719116,124.679085 
	C357.424774,124.457832 357.130432,124.236580 356.986877,124.008820 
	C356.986877,124.008820 356.991150,124.159660 356.710510,123.669022 
	C356.402832,123.458374 356.095154,123.247719 355.359741,122.951683 
	C355.079865,122.786324 354.947601,122.541290 354.718048,121.704597 
	C354.424469,121.473434 354.130920,121.242271 353.990723,121.004784 
	C353.990723,121.004784 353.995636,121.158195 353.692261,120.675102 
	C353.378174,120.465370 353.064056,120.255638 352.982208,120.058952 
	C352.982208,120.058952 352.961670,120.290627 352.631226,119.704819 
	C352.023590,119.506058 351.415924,119.307289 350.962799,119.079384 
	C350.962799,119.079384 350.979706,119.235710 350.651093,118.634621 
	C349.106934,118.427773 347.562775,118.220932 345.269989,118.225456 
	C340.155670,118.587143 336.071991,120.305550 334.437653,125.963074 
	C334.279266,133.624863 334.120850,141.286636 333.030884,148.995636 
	C325.920532,149.005737 318.808319,148.924500 311.700623,149.067093 
	C308.474182,149.131836 305.256653,149.640182 301.505951,150.167175 
	C301.060394,150.510056 300.614868,150.852936 299.999390,151.006027 
	C299.999390,151.006027 300.164185,151.201035 299.590607,151.371307 
	C299.149536,151.979858 298.708466,152.588425 298.095093,153.020203 
	C298.095093,153.020203 298.243378,153.217453 297.774414,153.762680 
	C297.608185,154.965363 297.441956,156.168030 297.115479,158.168671 
	C294.229767,174.180527 291.172913,190.164612 288.569214,206.222198 
	C287.847717,210.671799 288.472168,215.339645 289.252716,220.382874 
	C297.000732,220.594315 304.747986,220.844070 312.497101,221.001907 
	C316.708099,221.087692 320.922272,221.017212 324.615509,221.017212 
	C325.098083,224.568604 325.467438,227.286606 325.908997,230.841431 
	C325.608154,234.976959 325.134705,239.109116 325.053619,243.248947 
	C324.967896,247.628006 328.242462,250.607376 332.714783,250.940765 
	C338.920532,251.403366 343.338287,248.401108 347.794647,244.460388 
	C359.511688,234.099091 371.576599,224.131104 383.505066,214.008987 
	C389.797546,208.669373 395.937164,203.134018 402.430969,198.051437 
	C409.832001,192.258881 412.345215,185.112976 409.431763,176.712311 
	C409.229889,176.491241 409.028046,176.270187 408.939667,176.049469 
	C408.939667,176.049469 408.928101,176.162384 408.869720,175.481857 
	C408.192413,175.014023 407.515106,174.546188 406.957275,174.042130 
	C406.957275,174.042130 406.985443,174.163773 406.721558,173.673141 
	C406.427216,173.453369 406.132904,173.233597 405.987732,173.021255 
	C405.987732,173.021255 405.976959,173.170227 405.733643,172.664352 
	C405.433319,172.450226 405.132965,172.236099 404.979706,172.012833 
	C404.979706,172.012833 404.985443,172.160049 404.724243,171.668625 
	C404.429016,171.450912 404.133820,171.233200 403.986023,171.014252 
	C403.986023,171.014252 403.984344,171.161667 403.724884,170.668427 
	C403.428894,170.450836 403.132874,170.233246 402.986023,170.016693 
	C402.986023,170.016693 402.981903,170.165771 402.727203,169.668610 
	C402.430511,169.451370 402.133789,169.234116 401.984589,169.015869 
	C401.984589,169.015869 401.982391,169.163376 401.728851,168.667053 
	C401.432678,168.450470 401.136475,168.233871 400.985016,168.006729 
	C400.985016,168.006729 400.993347,168.151611 400.713837,167.675262 
	C400.424377,167.452484 400.134949,167.229691 399.992523,167.015442 
	C399.992523,167.015442 399.981628,167.162308 399.727905,166.665222 
	C399.430573,166.449387 399.133209,166.233536 398.984070,166.016022 
	C398.984070,166.016022 398.982483,166.164215 398.728180,165.668289 
	C398.432800,165.450790 398.137390,165.233292 397.986786,165.021500 
	C397.986786,165.021500 397.977570,165.166107 397.736420,164.660538 
	C397.436432,164.447540 397.136414,164.234558 396.979614,164.014801 
	C396.979614,164.014801 396.982849,164.158096 396.728729,163.660767 
	C396.429077,163.447464 396.129425,163.234161 395.981079,163.018906 
	C395.981079,163.018906 395.979218,163.170227 395.729004,162.668060 
	C395.429535,162.452362 395.130096,162.236679 394.981354,162.007141 
	C394.981354,162.007141 394.992645,162.158081 394.707825,161.669525 
	C394.399200,161.459473 394.090576,161.249420 393.352051,160.954147 
	C393.070465,160.786865 392.939941,160.539780 392.699921,159.713013 
	C392.411682,159.477921 392.123444,159.242828 391.990997,159.012878 
M211.042374,268.063477 
	C211.042374,268.063477 211.184143,268.102020 210.448807,268.068237 
	C209.637894,268.466034 208.826965,268.863800 208.046463,269.090729 
	C208.046463,269.090729 208.214157,269.135406 207.477600,269.048340 
	C206.659805,269.447784 205.842026,269.847260 205.045441,270.089783 
	C205.045441,270.089783 205.199814,270.125092 204.324127,270.025604 
	C199.268478,270.703186 194.203049,271.319489 189.167587,272.123505 
	C188.399231,272.246155 187.769592,273.237457 186.146606,273.985474 
	C176.044037,272.846893 165.703125,272.696655 155.896255,270.331818 
	C142.117523,267.009277 130.238983,259.781982 119.901146,249.661560 
	C110.157639,240.122955 102.545074,229.434326 98.310783,216.604263 
	C93.655632,202.498993 89.611740,188.064209 93.097748,173.036392 
	C95.181511,164.053543 97.447624,154.908829 101.273766,146.592300 
	C105.026939,138.434387 110.065025,130.531967 116.000633,123.807365 
	C122.036369,116.969330 129.390427,110.993698 137.048401,105.988731 
	C142.683105,102.306084 149.712784,100.729828 156.163925,98.330795 
	C166.457352,94.502907 177.274612,94.508629 188.514038,94.616692 
	C189.385941,94.720795 190.257828,94.824898 191.009583,94.962639 
	C191.009583,94.962639 190.981125,94.841164 191.533997,95.427856 
	C195.745804,95.921600 199.957596,96.415337 204.027634,96.943314 
	C204.027634,96.943314 204.002213,96.799690 204.405518,97.397209 
	C205.321198,97.570282 206.236877,97.743347 207.023514,97.961571 
	C207.023514,97.961571 206.984497,97.830544 207.425781,98.401466 
	C208.350327,98.561440 209.274872,98.721413 210.043930,98.909271 
	C210.043930,98.909271 210.030136,98.751907 210.348129,99.321106 
	C210.935516,99.535637 211.522919,99.750168 212.749023,100.227150 
	C222.886795,103.704697 231.952744,108.981331 239.265945,116.865387 
	C243.644638,121.585838 247.444458,126.841240 251.781372,131.604034 
	C252.719772,132.634567 255.366943,133.469299 256.342560,132.894089 
	C265.505829,127.491577 274.366364,121.575325 283.533417,116.179642 
	C293.281281,110.442101 303.266937,105.108566 313.936310,99.159485 
	C307.933167,91.704437 302.525818,84.767281 296.882874,78.027374 
	C284.835083,63.637527 269.803619,52.792923 253.752228,43.506180 
	C241.173767,36.228745 227.356155,31.654222 213.007492,29.058258 
	C206.271225,27.839533 199.441757,27.136015 193.150848,25.931778 
	C193.287827,25.700113 193.424820,25.468449 193.561798,25.236784 
	C193.432663,25.187059 193.303635,25.094139 193.174377,25.093798 
	C186.129791,25.075272 179.085175,25.064518 171.160843,25.010820 
	C163.109787,26.337229 155.058716,27.663639 146.256943,29.256826 
	C143.081467,30.195702 139.836777,30.949408 136.742645,32.105900 
	C124.186661,36.798939 111.436279,40.592133 99.922180,48.232346 
	C85.212105,57.993263 72.216263,69.162727 60.485195,82.339264 
	C50.379765,93.689865 42.811527,106.385033 36.781155,120.012733 
	C28.350576,139.064529 24.861008,159.429352 22.363594,180.721649 
	C21.604788,190.974289 21.880421,201.135666 25.491201,211.699570 
	C28.131275,227.244217 32.269119,242.416260 39.351273,256.488068 
	C43.490036,264.711548 48.838318,272.430634 54.401886,279.803589 
	C60.050648,287.289429 66.232185,294.480927 72.933601,301.030670 
	C78.286194,306.262115 84.453850,310.844147 90.824234,314.806946 
	C100.660027,320.925415 110.753578,326.733643 121.176331,331.765015 
	C127.338531,334.739685 134.254532,336.374725 140.996979,337.862396 
	C147.587082,339.316437 154.387329,339.818024 161.616623,341.380798 
	C172.723022,341.548981 183.829422,341.717194 195.760330,341.839783 
	C197.526505,341.572510 199.316116,341.409454 201.054565,341.018829 
	C206.719131,339.745941 212.365021,338.389984 218.790771,336.955292 
	C227.121567,333.912750 235.545990,331.099670 243.751755,327.750793 
	C249.690338,325.327209 255.774918,322.831787 261.028625,319.246338 
	C273.133514,310.985291 285.156403,302.502228 294.505188,290.909790 
	C296.022522,289.028229 297.915192,287.437408 299.708649,285.793243 
	C302.441895,283.287567 303.630280,281.032776 299.726837,278.348999 
	C284.149384,267.638977 268.605713,256.877716 253.169540,245.965729 
	C249.558258,243.412888 247.284866,244.715515 244.266113,247.066315 
	C237.865723,252.050461 231.162628,256.664978 224.406845,261.165649 
	C220.981567,263.447540 217.172150,265.152771 212.799286,267.128174 
	C212.204361,267.488037 211.609451,267.847870 211.042374,268.063477 
M199.091476,148.994476 
	C187.964645,149.003387 176.836884,148.945389 165.712006,149.097549 
	C164.149445,149.118912 162.600937,150.168900 160.408875,151.029160 
	C158.952667,152.362381 157.496475,153.695618 155.455093,154.968491 
	C155.309494,155.590576 155.037613,156.212479 155.036697,156.834778 
	C155.009583,175.164642 154.984741,193.494644 155.054535,211.824265 
	C155.059769,213.199402 155.771347,214.571838 156.719452,216.204849 
	C157.729401,217.409515 158.739334,218.614166 160.404114,220.436798 
	C161.868042,220.633881 163.331787,221.001495 164.795929,221.003052 
	C198.247101,221.038391 231.698334,221.045883 265.149475,220.999298 
	C266.744171,220.997086 268.338043,220.450409 270.612518,219.841858 
	C271.678406,217.749802 273.411682,215.745529 273.700226,213.551254 
	C275.389404,200.706085 276.740662,187.816483 278.792419,174.478867 
	C279.539917,168.478088 280.380707,162.486099 280.947693,156.468307 
	C281.048035,155.403488 280.006927,154.231125 279.067871,152.574020 
	C277.693726,151.661880 276.319550,150.749741 274.290039,149.347519 
	C272.473053,149.238602 270.656250,149.038666 268.839020,149.034622 
	C246.213989,148.984314 223.588882,148.962433 200.776077,148.683685 
	C200.461563,148.516983 200.213348,148.603104 199.091476,148.994476 
z"/>
<path fill="#FEFEFF" opacity="1.000000" stroke="none" 
	d="
M192.654526,26.199017 
	C199.441757,27.136015 206.271225,27.839533 213.007492,29.058258 
	C227.356155,31.654222 241.173767,36.228745 253.752228,43.506180 
	C269.803619,52.792923 284.835083,63.637527 296.882874,78.027374 
	C302.525818,84.767281 307.933167,91.704437 313.936310,99.159485 
	C303.266937,105.108566 293.281281,110.442101 283.533417,116.179642 
	C274.366364,121.575325 265.505829,127.491577 256.342560,132.894089 
	C255.366943,133.469299 252.719772,132.634567 251.781372,131.604034 
	C247.444458,126.841240 243.644638,121.585838 239.265945,116.865387 
	C231.952744,108.981331 222.886795,103.704697 212.315857,99.788086 
	C211.265182,99.149986 210.647659,98.950951 210.030136,98.751907 
	C210.030136,98.751907 210.043930,98.909271 209.930328,98.590439 
	C208.872635,98.124580 207.928574,97.977570 206.984497,97.830551 
	C206.984497,97.830544 207.023514,97.961571 206.922714,97.619881 
	C205.882019,97.118690 204.942108,96.959190 204.002213,96.799690 
	C204.002213,96.799690 204.027634,96.943314 203.844849,96.612457 
	C199.435089,95.801453 195.208115,95.321312 190.981125,94.841164 
	C190.981125,94.841164 191.009583,94.962639 190.895508,94.639404 
	C189.865921,94.261879 188.950424,94.207588 188.034912,94.153305 
	C177.274612,94.508629 166.457352,94.502907 156.163925,98.330795 
	C149.712784,100.729828 142.683105,102.306084 137.048401,105.988731 
	C129.390427,110.993698 122.036369,116.969330 116.000633,123.807365 
	C110.065025,130.531967 105.026939,138.434387 101.273766,146.592300 
	C97.447624,154.908829 95.181511,164.053543 93.097748,173.036392 
	C89.611740,188.064209 93.655632,202.498993 98.310783,216.604263 
	C102.545074,229.434326 110.157639,240.122955 119.901146,249.661560 
	C130.238983,259.781982 142.117523,267.009277 155.896255,270.331818 
	C165.703125,272.696655 176.044037,272.846893 187.018326,273.965149 
	C193.659973,272.671600 199.429886,271.398346 205.199814,270.125092 
	C205.199814,270.125092 205.045441,270.089783 205.387817,270.097229 
	C206.558182,269.781586 207.386169,269.458496 208.214157,269.135406 
	C208.214157,269.135406 208.046463,269.090729 208.380005,269.106750 
	C209.537079,268.782501 210.360611,268.442261 211.184143,268.102020 
	C211.184143,268.102020 211.042374,268.063477 211.390076,268.083557 
	C212.337326,267.775299 212.936859,267.447021 213.536407,267.118713 
	C217.172150,265.152771 220.981567,263.447540 224.406845,261.165649 
	C231.162628,256.664978 237.865723,252.050461 244.266113,247.066315 
	C247.284866,244.715515 249.558258,243.412888 253.169540,245.965729 
	C268.605713,256.877716 284.149384,267.638977 299.726837,278.348999 
	C303.630280,281.032776 302.441895,283.287567 299.708649,285.793243 
	C297.915192,287.437408 296.022522,289.028229 294.505188,290.909790 
	C285.156403,302.502228 273.133514,310.985291 261.028625,319.246338 
	C255.774918,322.831787 249.690338,325.327209 243.751755,327.750793 
	C235.545990,331.099670 227.121567,333.912750 217.985703,336.937256 
	C209.775513,338.269012 202.370377,339.618774 194.500366,340.925354 
	C183.055420,340.834015 172.075378,340.785858 161.095337,340.737732 
	C154.387329,339.818024 147.587082,339.316437 140.996979,337.862396 
	C134.254532,336.374725 127.338531,334.739685 121.176331,331.765015 
	C110.753578,326.733643 100.660027,320.925415 90.824234,314.806946 
	C84.453850,310.844147 78.286194,306.262115 72.933601,301.030670 
	C66.232185,294.480927 60.050648,287.289429 54.401886,279.803589 
	C48.838318,272.430634 43.490036,264.711548 39.351273,256.488068 
	C32.269119,242.416260 28.131275,227.244217 25.316666,210.922485 
	C24.372522,200.115341 23.602913,190.085281 22.833305,180.055222 
	C24.861008,159.429352 28.350576,139.064529 36.781155,120.012733 
	C42.811527,106.385033 50.379765,93.689865 60.485195,82.339264 
	C72.216263,69.162727 85.212105,57.993263 99.922180,48.232346 
	C111.436279,40.592133 124.186661,36.798939 136.742645,32.105900 
	C139.836777,30.949408 143.081467,30.195702 146.926285,29.269400 
	C155.737732,28.199017 163.879837,27.116060 172.487503,26.067663 
	C179.520218,26.134487 186.087372,26.166752 192.654526,26.199017 
z"/>
<path fill="#FEFEFF" opacity="1.000000" stroke="none" 
	d="
M409.205780,176.984192 
	C412.345215,185.112976 409.832001,192.258881 402.430969,198.051437 
	C395.937164,203.134018 389.797546,208.669373 383.505066,214.008987 
	C371.576599,224.131104 359.511688,234.099091 347.794647,244.460388 
	C343.338287,248.401108 338.920532,251.403366 332.714783,250.940765 
	C328.242462,250.607376 324.967896,247.628006 325.053619,243.248947 
	C325.134705,239.109116 325.608154,234.976959 325.947083,229.991745 
	C326.272156,226.221054 326.559174,223.300034 326.892548,219.907349 
	C313.998932,219.907349 301.239014,219.907349 288.479065,219.907349 
	C288.472168,215.339645 287.847717,210.671799 288.569214,206.222198 
	C291.172913,190.164612 294.229767,174.180527 297.471344,157.522217 
	C297.965942,155.656326 298.104675,154.436890 298.243378,153.217453 
	C298.243378,153.217453 298.095093,153.020203 298.445923,153.003204 
	C299.252563,152.391159 299.708374,151.796097 300.164185,151.201035 
	C300.164185,151.201035 299.999390,151.006027 300.539673,151.059906 
	C305.751434,150.900284 310.422913,150.686783 315.554382,150.510391 
	C321.635925,150.507828 327.257507,150.468170 333.161743,150.599304 
	C333.912933,150.505615 334.381470,150.241119 334.919739,149.514099 
	C334.999176,141.372040 335.008911,133.692520 335.018616,126.013000 
	C336.071991,120.305550 340.155670,118.587143 345.976501,118.270218 
	C348.115265,118.621895 349.547485,118.928802 350.979706,119.235710 
	C350.979706,119.235710 350.962799,119.079384 351.038025,119.382126 
	C351.729401,119.886787 352.345551,120.088707 352.961670,120.290619 
	C352.961670,120.290627 352.982208,120.058952 352.976379,120.328934 
	C353.312256,120.785347 353.653961,120.971771 353.995636,121.158195 
	C353.995636,121.158195 353.990723,121.004784 354.013855,121.280533 
	C354.345642,121.776382 354.654297,121.996490 354.962921,122.216591 
	C354.947601,122.541290 355.079865,122.786324 355.699097,123.253456 
	C356.356049,123.756706 356.673584,123.958183 356.991150,124.159660 
	C356.991150,124.159660 356.986877,124.008820 357.014160,124.282242 
	C357.355530,124.760963 357.669617,124.966263 357.983704,125.171555 
	C357.983704,125.171555 357.980072,125.014404 358.004150,125.289429 
	C358.343719,125.770920 358.659180,125.977379 358.974640,126.183838 
	C358.974640,126.183838 358.987946,126.022705 359.011414,126.288330 
	C359.352692,126.757439 359.670502,126.960922 359.988342,127.164398 
	C359.988342,127.164398 359.988129,127.011139 360.016663,127.280655 
	C360.358917,127.755264 360.672577,127.960358 360.986267,128.165451 
	C360.986267,128.165451 360.986145,128.012634 361.015259,128.282074 
	C361.358368,128.755478 361.672394,128.959473 361.986420,129.163452 
	C361.986420,129.163452 361.986267,129.012283 362.014893,129.282227 
	C362.357971,129.755295 362.672394,129.958420 362.986816,130.161545 
	C362.986816,130.161545 362.985016,130.012009 363.012573,130.283691 
	C363.355621,130.756134 363.671112,130.956894 363.986603,131.157639 
	C363.986603,131.157639 363.979675,131.011353 364.005798,131.287201 
	C364.348175,131.762573 364.664429,131.962097 364.980682,132.161621 
	C364.980682,132.161621 364.983002,132.017563 365.007690,132.289978 
	C365.348694,132.762222 365.665039,132.962082 365.981384,133.161926 
	C365.981384,133.161926 365.984161,133.017090 366.008606,133.289246 
	C366.349335,133.761841 366.665619,133.962265 366.981903,134.162689 
	C366.981903,134.162689 366.984833,134.016785 367.009399,134.288330 
	C367.349457,134.761383 367.664917,134.962891 367.980377,135.164398 
	C367.980377,135.164398 367.995544,135.017899 368.022583,135.281235 
	C368.363068,135.749893 368.676453,135.955231 368.989868,136.160568 
	C368.989868,136.160568 368.988068,136.010239 369.017029,136.280060 
	C369.358948,136.754074 369.671875,136.958267 369.984833,137.162445 
	C369.984833,137.162445 369.986481,137.013412 370.015747,137.283478 
	C370.356140,137.763489 370.667267,137.973450 370.978363,138.183395 
	C370.978363,138.183395 370.981201,138.019012 371.006409,138.289886 
	C371.348206,138.768082 371.664795,138.975418 371.981384,139.182755 
	C371.981384,139.182755 371.978638,139.017792 372.002686,139.291473 
	C372.343536,139.771530 372.660370,139.977905 372.977173,140.184265 
	C372.977173,140.184265 372.986237,140.018921 373.006836,140.289185 
	C373.336456,140.782852 373.645477,141.006287 373.954498,141.229706 
	C373.932648,141.554886 374.062164,141.800140 374.684326,142.266708 
	C375.345184,142.773178 375.664764,142.978439 375.984344,143.183701 
	C375.984344,143.183701 375.985291,143.016052 376.009094,143.286850 
	C376.349182,143.763184 376.665497,143.968719 376.981812,144.174255 
	C376.981812,144.174255 376.986267,144.014725 377.015320,144.280914 
	C377.361481,144.746841 377.678589,144.946564 377.995667,145.146271 
	C377.995667,145.146271 377.983887,145.004532 378.011719,145.281036 
	C378.352417,145.761169 378.665283,145.964813 378.978149,146.168472 
	C378.978149,146.168472 378.987671,146.019608 379.016296,146.285202 
	C379.358368,146.755585 379.671844,146.960373 379.985321,147.165146 
	C379.985321,147.165146 379.986908,147.013290 380.015808,147.282181 
	C380.359192,147.754044 380.673706,147.957001 380.988190,148.159958 
	C380.988190,148.159958 380.982849,148.010498 381.011230,148.283264 
	C381.353302,148.760315 381.666992,148.964584 381.980682,149.168839 
	C381.980682,149.168839 381.986969,149.017944 382.014282,149.285553 
	C382.355072,149.758987 382.668549,149.964798 382.981995,150.170609 
	C382.981995,150.170609 382.988525,150.014725 383.013916,150.282288 
	C383.346313,150.767670 383.653290,150.985458 383.960297,151.203247 
	C383.944977,151.531769 384.078186,151.780869 384.699890,152.254944 
	C385.357361,152.759445 385.674866,152.959564 385.992371,153.159683 
	C385.992371,153.159683 385.980194,153.006760 386.006775,153.284393 
	C386.346619,153.769592 386.659851,153.977173 386.973114,154.184738 
	C386.973114,154.184738 386.981171,154.023438 387.006134,154.291870 
	C387.346252,154.768570 387.661377,154.976807 387.976532,155.185059 
	C387.976532,155.185059 387.980927,155.021667 388.007141,155.289886 
	C388.350433,155.761154 388.667511,155.964218 388.984619,156.167282 
	C388.984619,156.167282 388.985840,156.014328 389.014587,156.283203 
	C389.356781,156.757294 389.670227,156.962494 389.983673,157.167694 
	C389.983673,157.167694 389.985657,157.014786 390.014587,157.283325 
	C390.356842,157.757431 390.670166,157.963028 390.983459,158.168610 
	C390.983459,158.168610 390.985596,158.014877 391.014771,158.283112 
	C391.357208,158.757095 391.670441,158.962845 391.983673,159.168610 
	C391.983673,159.168610 391.990997,159.012878 392.016968,159.280228 
	C392.348755,159.769348 392.654633,159.991135 392.960480,160.212906 
	C392.939941,160.539780 393.070465,160.786865 393.695404,161.254791 
	C394.356720,161.756302 394.674683,161.957199 394.992645,162.158081 
	C394.992645,162.158081 394.981354,162.007141 395.007416,162.284241 
	C395.348724,162.764313 395.663971,162.967270 395.979218,163.170227 
	C395.979218,163.170227 395.981079,163.018906 396.007172,163.289642 
	C396.349792,163.759628 396.666321,163.958862 396.982849,164.158081 
	C396.982849,164.158096 396.979614,164.014801 397.006104,164.288834 
	C397.347595,164.763947 397.662598,164.965027 397.977570,165.166107 
	C397.977570,165.166107 397.986786,165.021500 398.012482,165.289413 
	C398.352936,165.759628 398.667725,165.961914 398.982483,166.164215 
	C398.982483,166.164215 398.984070,166.016022 399.010986,166.286362 
	C399.352509,166.758575 399.667053,166.960449 399.981628,167.162308 
	C399.981628,167.162308 399.992523,167.015442 400.022644,167.279175 
	C400.366302,167.745819 400.679810,167.948715 400.993347,168.151611 
	C400.993347,168.151611 400.985016,168.006729 401.012970,168.281311 
	C401.354736,168.758377 401.668579,168.960876 401.982391,169.163376 
	C401.982391,169.163376 401.984589,169.015869 402.012421,169.285583 
	C402.354126,169.758789 402.668030,169.962280 402.981903,170.165771 
	C402.981903,170.165771 402.986023,170.016693 403.014038,170.284973 
	C403.356171,170.756058 403.670258,170.958862 403.984344,171.161667 
	C403.984344,171.161667 403.986023,171.014252 404.014404,171.283783 
	C404.356995,171.755569 404.671204,171.957809 404.985443,172.160049 
	C404.985443,172.160049 404.979706,172.012833 405.007568,172.286621 
	C405.349274,172.763672 405.663116,172.966949 405.976959,173.170227 
	C405.976959,173.170227 405.987732,173.021255 406.015137,173.287109 
	C406.356873,173.756577 406.671143,173.960175 406.985443,174.163773 
	C406.985443,174.163773 406.957275,174.042130 407.018860,174.338287 
	C407.696350,175.143768 408.312225,175.653061 408.928101,176.162384 
	C408.928101,176.162384 408.939667,176.049469 408.961914,176.289978 
	C409.058044,176.681747 409.131927,176.832977 409.205780,176.984192 
z"/>
<path fill="#FDFDFE" opacity="1.000000" stroke="none" 
	d="
M159.749283,219.818832 
	C158.739334,218.614166 157.729401,217.409515 156.380524,215.614197 
	C156.041153,195.025314 156.040710,175.027084 156.040268,155.028839 
	C157.496475,153.695618 158.952667,152.362381 161.153137,150.871292 
	C163.877869,150.655518 165.858322,150.597610 168.279968,150.709137 
	C171.531860,150.766373 174.342590,150.654160 177.434525,150.556061 
	C178.090927,150.560684 178.466095,150.551193 179.274811,150.710693 
	C181.855896,150.770218 184.003433,150.660721 186.606293,150.565506 
	C191.654053,150.568985 196.246490,150.558167 201.250916,150.715088 
	C202.826157,150.777252 203.989410,150.671661 205.609756,150.581451 
	C211.323669,150.581024 216.580490,150.565262 222.282166,150.715393 
	C225.869583,150.768250 229.012161,150.655182 232.544861,150.556122 
	C234.235931,150.559296 235.536911,150.548447 237.290802,150.706116 
	C247.804520,150.902466 257.865601,150.978378 267.925873,150.918213 
	C269.979889,150.905945 272.030823,150.382645 274.302338,150.042648 
	C274.521484,149.990372 274.945404,149.837585 274.945404,149.837585 
	C276.319550,150.749741 277.693726,151.661880 279.430359,153.262878 
	C279.263855,160.948456 278.734894,167.945160 278.205933,174.941879 
	C276.740662,187.816483 275.389404,200.706085 273.700226,213.551254 
	C273.411682,215.745529 271.678406,217.749802 269.814331,219.923782 
	C267.519287,220.003098 266.022400,220.000458 264.525543,219.997894 
	C229.600128,219.938217 194.674698,219.878510 159.749283,219.818832 
M259.230469,203.077942 
	C259.209564,190.739014 259.188660,178.400070 259.347992,165.401505 
	C254.311096,165.401505 249.274185,165.401505 243.999466,165.401505 
	C243.999466,172.143845 243.999481,178.741669 243.999481,185.339508 
	C243.999481,191.876648 243.999466,198.413788 243.999466,205.522278 
	C249.546844,204.963348 254.307037,204.483734 259.230469,203.077942 
M192.330017,166.368469 
	C192.004883,165.923065 191.685989,165.095016 191.353683,165.089615 
	C186.295853,165.007126 181.236267,165.032272 176.210449,165.032272 
	C176.210449,178.612701 176.210449,191.623642 176.210449,205.456299 
	C181.694061,204.956390 186.910080,204.480865 192.261597,203.075027 
	C192.194595,191.054489 192.127609,179.033966 192.330017,166.368469 
M210.001770,177.511215 
	C210.001770,186.601471 210.001770,195.691727 210.001770,204.705368 
	C215.647858,204.705368 220.714676,204.705368 225.707123,204.705368 
	C225.707123,191.346649 225.707123,178.285507 225.707123,165.294708 
	C220.342651,165.294708 215.276260,165.294708 210.001846,165.294708 
	C210.001846,169.232285 210.001846,172.874878 210.001770,177.511215 
z"/>
<path fill="#00158C" opacity="1.000000" stroke="none" 
	d="
M221.837326,150.549500 
	C216.580490,150.565262 211.323669,150.581024 205.348785,150.381897 
	C203.366791,150.293793 202.102859,150.420578 200.838928,150.547363 
	C196.246490,150.558167 191.654053,150.568985 186.289520,150.361664 
	C183.292038,150.276260 181.066650,150.408981 178.841278,150.541687 
	C178.466095,150.551193 178.090927,150.560684 177.094788,150.353821 
	C173.595474,150.271530 170.717133,150.405624 167.838776,150.539703 
	C165.858322,150.597610 163.877869,150.655518 161.471680,150.728088 
	C162.600937,150.168900 164.149445,149.118912 165.712006,149.097549 
	C176.836884,148.945389 187.964645,149.003387 199.794495,148.978714 
	C200.497513,148.962952 200.963806,148.933273 200.963806,148.933273 
	C223.588882,148.962433 246.213989,148.984314 268.839020,149.034622 
	C270.656250,149.038666 272.473053,149.238602 274.617737,149.592560 
	C274.945404,149.837585 274.521484,149.990372 273.831299,149.986191 
	C261.040070,150.167206 248.938965,150.352402 236.837875,150.537598 
	C235.536911,150.548447 234.235931,150.559296 232.194473,150.356079 
	C228.248428,150.277847 225.042877,150.413681 221.837326,150.549500 
z"/>
<path fill="#00138E" opacity="1.000000" stroke="none" 
	d="
M160.076691,220.127808 
	C194.674698,219.878510 229.600128,219.938217 264.525543,219.997894 
	C266.022400,220.000458 267.519287,220.003098 269.474243,220.081497 
	C268.338043,220.450409 266.744171,220.997086 265.149475,220.999298 
	C231.698334,221.045883 198.247101,221.038391 164.795929,221.003052 
	C163.331787,221.001495 161.868042,220.633881 160.076691,220.127808 
z"/>
<path fill="#000685" opacity="1.000000" stroke="none" 
	d="
M155.747681,154.998657 
	C156.040710,175.027084 156.041153,195.025314 156.098068,215.484558 
	C155.771347,214.571838 155.059769,213.199402 155.054535,211.824265 
	C154.984741,193.494644 155.009583,175.164642 155.036697,156.834778 
	C155.037613,156.212479 155.309494,155.590576 155.747681,154.998657 
z"/>
<path fill="#00158C" opacity="1.000000" stroke="none" 
	d="
M332.879089,150.428513 
	C327.257507,150.468170 321.635925,150.507828 315.193146,150.309082 
	C310.259644,150.029541 306.147369,149.988419 302.035065,149.947296 
	C305.256653,149.640182 308.474182,149.131836 311.700623,149.067093 
	C318.808319,148.924500 325.920532,149.005737 333.507233,149.189590 
	C333.983582,149.383545 333.997955,149.818314 333.784302,149.876404 
	C333.241180,149.960571 333.010651,150.125244 332.879089,150.428513 
z"/>
<path fill="#040C8B" opacity="1.000000" stroke="none" 
	d="
M288.865906,220.145111 
	C301.239014,219.907349 313.998932,219.907349 326.892548,219.907349 
	C326.559174,223.300034 326.272156,226.221054 325.910950,229.573334 
	C325.467438,227.286606 325.098083,224.568604 324.615509,221.017212 
	C320.922272,221.017212 316.708099,221.087692 312.497101,221.001907 
	C304.747986,220.844070 297.000732,220.594315 288.865906,220.145111 
z"/>
<path fill="#062497" opacity="1.000000" stroke="none" 
	d="
M22.598450,180.388428 
	C23.602913,190.085281 24.372522,200.115341 25.090517,210.594040 
	C21.880421,201.135666 21.604788,190.974289 22.598450,180.388428 
z"/>
<path fill="#162C98" opacity="1.000000" stroke="none" 
	d="
M172.021942,26.033104 
	C163.879837,27.116060 155.737732,28.199017 147.301636,29.136011 
	C155.058716,27.663639 163.109787,26.337229 171.587311,25.276539 
	C172.013779,25.542259 172.021942,26.033104 172.021942,26.033104 
z"/>
<path fill="#010783" opacity="1.000000" stroke="none" 
	d="
M161.355988,341.059265 
	C172.075378,340.785858 183.055420,340.834015 194.496704,341.154663 
	C194.957932,341.427185 194.935822,341.885406 194.935822,341.885406 
	C183.829422,341.717194 172.723022,341.548981 161.355988,341.059265 
z"/>
<path fill="#0B1F93" opacity="1.000000" stroke="none" 
	d="
M195.348083,341.862610 
	C194.935822,341.885406 194.957932,341.427185 194.961594,341.197876 
	C202.370377,339.618774 209.775513,338.269012 217.599365,336.992615 
	C212.365021,338.389984 206.719131,339.745941 201.054565,341.018829 
	C199.316116,341.409454 197.526505,341.572510 195.348083,341.862610 
z"/>
<path fill="#0B1F93" opacity="1.000000" stroke="none" 
	d="
M278.499176,174.710373 
	C278.734894,167.945160 279.263855,160.948456 279.642853,153.530090 
	C280.006927,154.231125 281.048035,155.403488 280.947693,156.468307 
	C280.380707,162.486099 279.539917,168.478088 278.499176,174.710373 
z"/>
<path fill="#0B1F93" opacity="1.000000" stroke="none" 
	d="
M204.761963,270.075348 
	C199.429886,271.398346 193.659973,272.671600 187.482910,273.885925 
	C187.769592,273.237457 188.399231,272.246155 189.167587,272.123505 
	C194.203049,271.319489 199.268478,270.703186 204.761963,270.075348 
z"/>
<path fill="#010480" opacity="1.000000" stroke="none" 
	d="
M333.997955,149.818314 
	C333.997955,149.818314 333.983582,149.383545 333.973022,149.165985 
	C334.120850,141.286636 334.279266,133.624863 334.728149,125.988037 
	C335.008911,133.692520 334.999176,141.372040 334.701904,149.501022 
	C334.414368,149.950485 333.997955,149.818314 333.997955,149.818314 
z"/>
<path fill="#020A85" opacity="1.000000" stroke="none" 
	d="
M172.487503,26.067663 
	C172.021942,26.033104 172.013779,25.542259 172.027176,25.297615 
	C179.085175,25.064518 186.129791,25.075272 193.174377,25.093798 
	C193.303635,25.094139 193.432663,25.187059 193.561798,25.236786 
	C193.424820,25.468449 193.287827,25.700113 192.902679,26.065395 
	C186.087372,26.166752 179.520218,26.134487 172.487503,26.067663 
z"/>
<path fill="#5471B9" opacity="1.000000" stroke="none" 
	d="
M301.770508,150.057236 
	C306.147369,149.988419 310.259644,150.029541 314.733185,150.271973 
	C310.422913,150.686783 305.751434,150.900284 300.624634,151.154785 
	C300.614868,150.852936 301.060394,150.510056 301.770508,150.057236 
z"/>
<path fill="#071D90" opacity="1.000000" stroke="none" 
	d="
M191.257568,95.134506 
	C195.208115,95.321312 199.435089,95.801453 203.915741,96.595337 
	C199.957596,96.415337 195.745804,95.921600 191.257568,95.134506 
z"/>
<path fill="#031E93" opacity="1.000000" stroke="none" 
	d="
M350.815399,118.935165 
	C349.547485,118.928802 348.115265,118.621895 346.350830,118.164536 
	C347.562775,118.220932 349.106934,118.427773 350.815399,118.935165 
z"/>
<path fill="#5471B9" opacity="1.000000" stroke="none" 
	d="
M298.008911,153.490067 
	C298.104675,154.436890 297.965942,155.656326 297.551453,157.123230 
	C297.441956,156.168030 297.608185,154.965363 298.008911,153.490067 
z"/>
<path fill="#071D90" opacity="1.000000" stroke="none" 
	d="
M207.205139,98.116013 
	C207.928574,97.977570 208.872635,98.124580 210.008057,98.576492 
	C209.274872,98.721413 208.350327,98.561440 207.205139,98.116013 
z"/>
<path fill="#0B1F93" opacity="1.000000" stroke="none" 
	d="
M207.845886,269.091858 
	C207.386169,269.458496 206.558182,269.781586 205.377213,270.175720 
	C205.842026,269.847260 206.659805,269.447784 207.845886,269.091858 
z"/>
<path fill="#5471B9" opacity="1.000000" stroke="none" 
	d="
M299.877380,151.286163 
	C299.708374,151.796097 299.252563,152.391159 298.532104,153.091614 
	C298.708466,152.588425 299.149536,151.979858 299.877380,151.286163 
z"/>
<path fill="#0B1F93" opacity="1.000000" stroke="none" 
	d="
M210.816467,268.085144 
	C210.360611,268.442261 209.537079,268.782501 208.364807,269.192169 
	C208.826965,268.863800 209.637894,268.466034 210.816467,268.085144 
z"/>
<path fill="#071D90" opacity="1.000000" stroke="none" 
	d="
M188.274475,94.384995 
	C188.950424,94.207588 189.865921,94.261879 190.955582,94.622589 
	C190.257828,94.824898 189.385941,94.720795 188.274475,94.384995 
z"/>
<path fill="#031E93" opacity="1.000000" stroke="none" 
	d="
M408.898926,175.822113 
	C408.312225,175.653061 407.696350,175.143768 406.959137,174.356415 
	C407.515106,174.546188 408.192413,175.014023 408.898926,175.822113 
z"/>
<path fill="#071D90" opacity="1.000000" stroke="none" 
	d="
M204.203857,97.098450 
	C204.942108,96.959190 205.882019,97.118690 206.987244,97.597305 
	C206.236877,97.743347 205.321198,97.570282 204.203857,97.098450 
z"/>
<path fill="#0B1F93" opacity="1.000000" stroke="none" 
	d="
M213.167847,267.123444 
	C212.936859,267.447021 212.337326,267.775299 211.376160,268.155670 
	C211.609451,267.847870 212.204361,267.488037 213.167847,267.123444 
z"/>
<path fill="#031E93" opacity="1.000000" stroke="none" 
	d="
M352.796448,119.997719 
	C352.345551,120.088707 351.729401,119.886787 350.960785,119.396698 
	C351.415924,119.307289 352.023590,119.506058 352.796448,119.997719 
z"/>
<path fill="#071D90" opacity="1.000000" stroke="none" 
	d="
M210.189133,99.036507 
	C210.647659,98.950951 211.265182,99.149986 211.996506,99.656868 
	C211.522919,99.750168 210.935516,99.535637 210.189133,99.036507 
z"/>
<path fill="#031E93" opacity="1.000000" stroke="none" 
	d="
M357.851410,124.925323 
	C357.669617,124.966263 357.355530,124.760963 356.938782,124.285492 
	C357.130432,124.236580 357.424774,124.457832 357.851410,124.925323 
z"/>
<path fill="#031E93" opacity="1.000000" stroke="none" 
	d="
M398.855347,165.916260 
	C398.667725,165.961914 398.352936,165.759628 397.940094,165.286560 
	C398.137390,165.233292 398.432800,165.450790 398.855347,165.916260 
z"/>
<path fill="#031E93" opacity="1.000000" stroke="none" 
	d="
M356.850830,123.914337 
	C356.673584,123.958183 356.356049,123.756706 355.912964,123.296143 
	C356.095154,123.247719 356.402832,123.458374 356.850830,123.914337 
z"/>
<path fill="#031E93" opacity="1.000000" stroke="none" 
	d="
M354.840485,121.960594 
	C354.654297,121.996490 354.345642,121.776382 353.937195,121.283691 
	C354.130920,121.242271 354.424469,121.473434 354.840485,121.960594 
z"/>
<path fill="#031E93" opacity="1.000000" stroke="none" 
	d="
M358.848358,125.931519 
	C358.659180,125.977379 358.343719,125.770920 357.925659,125.292984 
	C358.122742,125.240738 358.422394,125.459969 358.848358,125.931519 
z"/>
<path fill="#031E93" opacity="1.000000" stroke="none" 
	d="
M397.856995,164.913330 
	C397.662598,164.965027 397.347595,164.763947 396.934509,164.292221 
	C397.136414,164.234558 397.436432,164.447540 397.856995,164.913330 
z"/>
<path fill="#031E93" opacity="1.000000" stroke="none" 
	d="
M396.855774,163.909424 
	C396.666321,163.958862 396.349792,163.759628 395.931519,163.290634 
	C396.129425,163.234161 396.429077,163.447464 396.855774,163.909424 
z"/>
<path fill="#031E93" opacity="1.000000" stroke="none" 
	d="
M395.854126,162.919144 
	C395.663971,162.967270 395.348724,162.764313 394.932068,162.291168 
	C395.130096,162.236679 395.429535,162.452362 395.854126,162.919144 
z"/>
<path fill="#031E93" opacity="1.000000" stroke="none" 
	d="
M353.843933,120.916649 
	C353.653961,120.971771 353.312256,120.785347 352.860291,120.322418 
	C353.064056,120.255638 353.378174,120.465370 353.843933,120.916649 
z"/>
<path fill="#031E93" opacity="1.000000" stroke="none" 
	d="
M399.854767,166.913757 
	C399.667053,166.960449 399.352509,166.758575 398.936890,166.287201 
	C399.133209,166.233536 399.430573,166.449387 399.854767,166.913757 
z"/>
<path fill="#031E93" opacity="1.000000" stroke="none" 
	d="
M389.851562,156.921631 
	C389.670227,156.962494 389.356781,156.757294 388.938110,156.284042 
	C389.128387,156.235855 389.423920,156.455719 389.851562,156.921631 
z"/>
<path fill="#031E93" opacity="1.000000" stroke="none" 
	d="
M400.853577,167.913437 
	C400.679810,167.948715 400.366302,167.745819 399.949127,167.274902 
	C400.134949,167.229691 400.424377,167.452484 400.853577,167.913437 
z"/>
<path fill="#031E93" opacity="1.000000" stroke="none" 
	d="
M401.855621,168.915222 
	C401.668579,168.960876 401.354736,168.758377 400.940613,168.286591 
	C401.136475,168.233871 401.432678,168.450470 401.855621,168.915222 
z"/>
<path fill="#031E93" opacity="1.000000" stroke="none" 
	d="
M402.854553,169.917191 
	C402.668030,169.962280 402.354126,169.758789 401.938660,169.286087 
	C402.133789,169.234116 402.430511,169.451370 402.854553,169.917191 
z"/>
<path fill="#031E93" opacity="1.000000" stroke="none" 
	d="
M403.854614,170.915039 
	C403.670258,170.958862 403.356171,170.756058 402.939484,170.284454 
	C403.132874,170.233246 403.428894,170.450836 403.854614,170.915039 
z"/>
<path fill="#031E93" opacity="1.000000" stroke="none" 
	d="
M404.854858,171.914337 
	C404.671204,171.957809 404.356995,171.755569 403.940674,171.284393 
	C404.133820,171.233200 404.429016,171.450912 404.854858,171.914337 
z"/>
<path fill="#031E93" opacity="1.000000" stroke="none" 
	d="
M405.855286,172.917297 
	C405.663116,172.966949 405.349274,172.763672 404.934021,172.291183 
	C405.132965,172.236099 405.433319,172.450226 405.855286,172.917297 
z"/>
<path fill="#031E93" opacity="1.000000" stroke="none" 
	d="
M406.853516,173.918457 
	C406.671143,173.960175 406.356873,173.756577 405.940552,173.283386 
	C406.132904,173.233597 406.427216,173.453369 406.853516,173.918457 
z"/>
<path fill="#031E93" opacity="1.000000" stroke="none" 
	d="
M409.318787,176.848251 
	C409.131927,176.832977 409.058044,176.681747 408.905151,176.289810 
	C409.028046,176.270187 409.229889,176.491241 409.318787,176.848251 
z"/>
<path fill="#031E93" opacity="1.000000" stroke="none" 
	d="
M372.847412,139.932968 
	C372.660370,139.977905 372.343536,139.771530 371.920258,139.294846 
	C372.115082,139.243561 372.416351,139.462616 372.847412,139.932968 
z"/>
<path fill="#1D53AF" opacity="1.000000" stroke="none" 
	d="
M200.869934,148.808472 
	C200.963806,148.933273 200.497513,148.962952 200.264496,148.952484 
	C200.213348,148.603104 200.461563,148.516983 200.869934,148.808472 
z"/>
<path fill="#031E93" opacity="1.000000" stroke="none" 
	d="
M380.853058,147.916840 
	C380.673706,147.957001 380.359192,147.754044 379.939880,147.282761 
	C380.129333,147.234222 380.423645,147.453979 380.853058,147.916840 
z"/>
<path fill="#031E93" opacity="1.000000" stroke="none" 
	d="
M379.852020,146.920593 
	C379.671844,146.960373 379.358368,146.755585 378.941772,146.282028 
	C379.132019,146.234177 379.425354,146.455109 379.852020,146.920593 
z"/>
<path fill="#031E93" opacity="1.000000" stroke="none" 
	d="
M378.855347,145.917664 
	C378.665283,145.964813 378.352417,145.761169 377.940918,145.287918 
	C378.139038,145.234497 378.435791,145.450668 378.855347,145.917664 
z"/>
<path fill="#031E93" opacity="1.000000" stroke="none" 
	d="
M377.852173,144.909409 
	C377.678589,144.946564 377.361481,144.746841 376.935547,144.280151 
	C377.120667,144.232956 377.414673,144.452759 377.852173,144.909409 
z"/>
<path fill="#031E93" opacity="1.000000" stroke="none" 
	d="
M376.845886,143.928528 
	C376.665497,143.968719 376.349182,143.763184 375.925262,143.287949 
	C376.115112,143.239761 376.412537,143.461288 376.845886,143.928528 
z"/>
<path fill="#031E93" opacity="1.000000" stroke="none" 
	d="
M375.844330,142.934265 
	C375.664764,142.978439 375.345184,142.773178 374.898193,142.307220 
	C375.081970,142.259293 375.393127,142.472061 375.844330,142.934265 
z"/>
<path fill="#031E93" opacity="1.000000" stroke="none" 
	d="
M373.827759,140.973969 
	C373.645477,141.006287 373.336456,140.782852 372.924072,140.286240 
	C373.114166,140.248108 373.407562,140.483154 373.827759,140.973969 
z"/>
<path fill="#031E93" opacity="1.000000" stroke="none" 
	d="
M381.853760,148.919403 
	C381.666992,148.964584 381.353302,148.760315 380.936584,148.287308 
	C381.131287,148.235703 381.429047,148.452820 381.853760,148.919403 
z"/>
<path fill="#031E93" opacity="1.000000" stroke="none" 
	d="
M371.846466,138.935120 
	C371.664795,138.975418 371.348206,138.768082 370.924194,138.290375 
	C371.115051,138.242493 371.413300,138.464996 371.846466,138.935120 
z"/>
<path fill="#031E93" opacity="1.000000" stroke="none" 
	d="
M370.847961,137.935120 
	C370.667267,137.973450 370.356140,137.763489 369.941223,137.284042 
	C370.130798,137.238647 370.424194,137.462738 370.847961,137.935120 
z"/>
<path fill="#031E93" opacity="1.000000" stroke="none" 
	d="
M369.853210,136.917511 
	C369.671875,136.958267 369.358948,136.754074 368.941895,136.282104 
	C369.132385,136.233749 369.426971,136.453156 369.853210,136.917511 
z"/>
<path fill="#031E93" opacity="1.000000" stroke="none" 
	d="
M368.850983,135.921265 
	C368.676453,135.955231 368.363068,135.749893 367.949249,135.274689 
	C368.136597,135.230545 368.424347,135.456268 368.850983,135.921265 
z"/>
<path fill="#031E93" opacity="1.000000" stroke="none" 
	d="
M367.855408,134.914734 
	C367.664917,134.962891 367.349457,134.761383 366.936432,134.288483 
	C367.136047,134.233093 367.433258,134.449081 367.855408,134.914734 
z"/>
<path fill="#031E93" opacity="1.000000" stroke="none" 
	d="
M366.856384,133.913513 
	C366.665619,133.962265 366.349335,133.761841 365.936157,133.289551 
	C366.136475,133.233261 366.433655,133.448807 366.856384,133.913513 
z"/>
<path fill="#031E93" opacity="1.000000" stroke="none" 
	d="
M365.856750,132.912262 
	C365.665039,132.962082 365.348694,132.762222 364.935638,132.290588 
	C365.136658,132.233383 365.434418,132.447998 365.856750,132.912262 
z"/>
<path fill="#031E93" opacity="1.000000" stroke="none" 
	d="
M394.850220,161.913818 
	C394.674683,161.957199 394.356720,161.756302 393.910339,161.297394 
	C394.090576,161.249420 394.399200,161.459473 394.850220,161.913818 
z"/>
<path fill="#031E93" opacity="1.000000" stroke="none" 
	d="
M363.854797,130.912643 
	C363.671112,130.956894 363.355621,130.756134 362.937836,130.285980 
	C363.131378,130.233597 363.427185,130.450623 363.854797,130.912643 
z"/>
<path fill="#031E93" opacity="1.000000" stroke="none" 
	d="
M362.853271,129.917221 
	C362.672394,129.958420 362.357971,129.755295 361.939331,129.283615 
	C362.130005,129.234344 362.424835,129.453613 362.853271,129.917221 
z"/>
<path fill="#031E93" opacity="1.000000" stroke="none" 
	d="
M382.851501,149.923492 
	C382.668549,149.964798 382.355072,149.758987 381.938812,149.283966 
	C382.130981,149.235291 382.425995,149.455826 382.851501,149.923492 
z"/>
<path fill="#031E93" opacity="1.000000" stroke="none" 
	d="
M361.851990,128.919434 
	C361.672394,128.959473 361.358368,128.755478 360.938843,128.283478 
	C361.128082,128.235443 361.422821,128.455414 361.851990,128.919434 
z"/>
<path fill="#031E93" opacity="1.000000" stroke="none" 
	d="
M360.850586,127.922394 
	C360.672577,127.960358 360.358917,127.755264 359.940063,127.281952 
	C360.128204,127.235603 360.421570,127.457466 360.850586,127.922394 
z"/>
<path fill="#031E93" opacity="1.000000" stroke="none" 
	d="
M383.832672,150.952545 
	C383.653290,150.985458 383.346313,150.767670 382.935913,150.280365 
	C383.123383,150.241196 383.414215,150.471527 383.832672,150.952545 
z"/>
<path fill="#031E93" opacity="1.000000" stroke="none" 
	d="
M385.850494,152.916809 
	C385.674866,152.959564 385.357361,152.759445 384.916321,152.299896 
	C385.098083,152.251587 385.403351,152.462753 385.850494,152.916809 
z"/>
<path fill="#031E93" opacity="1.000000" stroke="none" 
	d="
M386.850067,153.930771 
	C386.659851,153.977173 386.346619,153.769592 385.930420,153.291763 
	C386.127350,153.239929 386.427185,153.458359 386.850067,153.930771 
z"/>
<path fill="#031E93" opacity="1.000000" stroke="none" 
	d="
M359.848419,126.922897 
	C359.670502,126.960922 359.352692,126.757439 358.930725,126.283401 
	C359.120544,126.235695 359.414520,126.458534 359.848419,126.922897 
z"/>
<path fill="#031E93" opacity="1.000000" stroke="none" 
	d="
M387.846619,154.934357 
	C387.661377,154.976807 387.346252,154.768570 386.925415,154.290009 
	C387.118683,154.241013 387.417694,154.462341 387.846619,154.934357 
z"/>
<path fill="#031E93" opacity="1.000000" stroke="none" 
	d="
M388.850311,155.920929 
	C388.667511,155.964218 388.350433,155.761154 387.925415,155.289764 
	C388.116974,155.239151 388.416504,155.456863 388.850311,155.920929 
z"/>
<path fill="#031E93" opacity="1.000000" stroke="none" 
	d="
M364.856720,131.910995 
	C364.664429,131.962097 364.348175,131.762573 363.932739,131.292282 
	C364.133301,131.234467 364.433014,131.447418 364.856720,131.910995 
z"/>
<path fill="#031E93" opacity="1.000000" stroke="none" 
	d="
M390.850891,157.922760 
	C390.670166,157.963028 390.356842,157.757431 389.938141,157.283844 
	C390.127930,157.236191 390.423126,157.456558 390.850891,157.922760 
z"/>
<path fill="#031E93" opacity="1.000000" stroke="none" 
	d="
M391.850403,158.923187 
	C391.670441,158.962845 391.357208,158.757095 390.937927,158.283600 
	C391.126923,158.236481 391.422028,158.457123 391.850403,158.923187 
z"/>
<path fill="#031E93" opacity="1.000000" stroke="none" 
	d="
M392.830200,159.962952 
	C392.654633,159.991135 392.348755,159.769348 391.939056,159.277649 
	C392.123444,159.242828 392.411682,159.477921 392.830200,159.962952 
z"/>
<path fill="#5471B9" opacity="1.000000" stroke="none" 
	d="
M333.784302,149.876404 
	C333.997955,149.818314 334.414368,149.950485 334.632202,149.963562 
	C334.381470,150.241119 333.912933,150.505615 333.161743,150.599304 
	C333.010651,150.125244 333.241180,149.960571 333.784302,149.876404 
z"/>
<path fill="#010783" opacity="1.000000" stroke="none" 
	d="
M210.001801,177.014343 
	C210.001846,172.874878 210.001846,169.232285 210.001846,165.294708 
	C215.276260,165.294708 220.342651,165.294708 225.707123,165.294708 
	C225.707123,178.285507 225.707123,191.346649 225.707123,204.705368 
	C220.714676,204.705368 215.647858,204.705368 210.001770,204.705368 
	C210.001770,195.691727 210.001770,186.601471 210.001801,177.014343 
M224.996780,195.437164 
	C224.999649,188.776062 224.998093,182.114944 225.006424,175.453842 
	C225.019363,165.130890 225.028137,165.216492 214.439972,165.947830 
	C211.845001,166.127060 210.957520,167.082642 210.973236,169.581635 
	C211.038147,179.905853 210.946976,190.231293 211.061340,200.554626 
	C211.073380,201.642578 212.007523,203.620148 212.604095,203.655350 
	C216.394302,203.878922 220.306030,204.100082 223.943878,203.282181 
	C224.767914,203.096893 224.669815,198.810410 224.996780,195.437164 
z"/>
<path fill="#040885" opacity="1.000000" stroke="none" 
	d="
M192.126114,204.005356 
	C186.910080,204.480865 181.694061,204.956390 176.210449,205.456299 
	C176.210449,191.623642 176.210449,178.612701 176.210449,165.032272 
	C181.236267,165.032272 186.295853,165.007126 191.353683,165.089615 
	C191.685989,165.095016 192.004883,165.923065 191.972443,166.674438 
	C191.614883,166.980408 191.168274,166.962585 190.834351,166.692993 
	C187.357956,166.285416 184.209473,166.225891 181.074738,165.986633 
	C178.116348,165.760849 176.914261,166.846130 176.958206,169.951080 
	C177.099472,179.932327 177.083771,189.917618 176.969788,199.899536 
	C176.936325,202.830261 177.812210,204.211929 180.943542,204.027771 
	C184.260132,203.832718 187.596100,203.967484 191.224274,203.969208 
	C191.725342,203.988617 191.925735,203.996979 192.126114,204.005356 
z"/>
<path fill="#020A85" opacity="1.000000" stroke="none" 
	d="
M259.067230,204.004120 
	C254.307037,204.483734 249.546844,204.963348 243.999466,205.522278 
	C243.999466,198.413788 243.999481,191.876648 243.999481,185.339508 
	C243.999481,178.741669 243.999466,172.143845 243.999466,165.401505 
	C249.274185,165.401505 254.311096,165.401505 258.940247,165.730347 
	C258.320770,166.060287 258.109039,166.061386 257.442139,166.039520 
	C254.661072,166.013885 252.313553,166.211594 250.014008,165.963928 
	C246.073685,165.539566 244.759598,167.053040 244.928696,171.016663 
	C245.218765,177.815933 245.006485,184.636673 245.003860,191.448410 
	C244.998978,204.130600 244.998611,204.130600 258.205780,203.965485 
	C258.684418,203.985855 258.875824,203.994980 259.067230,204.004120 
z"/>
<path fill="#00138F" opacity="1.000000" stroke="none" 
	d="
M257.897278,166.062500 
	C258.109039,166.061386 258.320770,166.060287 258.850159,166.060165 
	C259.188660,178.400070 259.209564,190.739014 259.148865,203.541031 
	C258.875824,203.994980 258.684418,203.985855 258.234039,203.502014 
	C257.949158,190.705719 257.923218,178.384109 257.897278,166.062500 
z"/>
<path fill="#00138F" opacity="1.000000" stroke="none" 
	d="
M192.193848,203.540192 
	C191.925735,203.996979 191.725342,203.988617 191.250885,203.505249 
	C191.040649,191.007706 191.104462,178.985153 191.168274,166.962585 
	C191.168274,166.962585 191.614883,166.980408 191.837738,166.996918 
	C192.127609,179.033966 192.194595,191.054489 192.193848,203.540192 
z"/>
<path fill="#6684C1" opacity="1.000000" stroke="none" 
	d="
M237.290802,150.706116 
	C248.938965,150.352402 261.040070,150.167206 273.612183,150.038467 
	C272.030823,150.382645 269.979889,150.905945 267.925873,150.918213 
	C257.865601,150.978378 247.804520,150.902466 237.290802,150.706116 
z"/>
<path fill="#6684C1" opacity="1.000000" stroke="none" 
	d="
M222.282166,150.715393 
	C225.042877,150.413681 228.248428,150.277847 231.804367,150.342072 
	C229.012161,150.655182 225.869583,150.768250 222.282166,150.715393 
z"/>
<path fill="#6684C1" opacity="1.000000" stroke="none" 
	d="
M168.279968,150.709137 
	C170.717133,150.405624 173.595474,150.271530 176.813568,150.339691 
	C174.342590,150.654160 171.531860,150.766373 168.279968,150.709137 
z"/>
<path fill="#6684C1" opacity="1.000000" stroke="none" 
	d="
M179.274811,150.710693 
	C181.066650,150.408981 183.292038,150.276260 185.834198,150.347382 
	C184.003433,150.660721 181.855896,150.770218 179.274811,150.710693 
z"/>
<path fill="#6684C1" opacity="1.000000" stroke="none" 
	d="
M201.250916,150.715088 
	C202.102859,150.420578 203.366791,150.293793 204.891693,150.366547 
	C203.989410,150.671661 202.826157,150.777252 201.250916,150.715088 
z"/>
<path fill="#174AAB" opacity="1.000000" stroke="none" 
	d="
M224.996475,195.924438 
	C224.669815,198.810410 224.767914,203.096893 223.943878,203.282181 
	C220.306030,204.100082 216.394302,203.878922 212.604095,203.655350 
	C212.007523,203.620148 211.073380,201.642578 211.061340,200.554626 
	C210.946976,190.231293 211.038147,179.905853 210.973236,169.581635 
	C210.957520,167.082642 211.845001,166.127060 214.439972,165.947830 
	C225.028137,165.216492 225.019363,165.130890 225.006424,175.453842 
	C224.998093,182.114944 224.999649,188.776062 224.996475,195.924438 
z"/>
<path fill="#184BAC" opacity="1.000000" stroke="none" 
	d="
M190.834351,166.692993 
	C191.104462,178.985153 191.040649,191.007706 190.950226,203.494232 
	C187.596100,203.967484 184.260132,203.832718 180.943542,204.027771 
	C177.812210,204.211929 176.936325,202.830261 176.969788,199.899536 
	C177.083771,189.917618 177.099472,179.932327 176.958206,169.951080 
	C176.914261,166.846130 178.116348,165.760849 181.074738,165.986633 
	C184.209473,166.225891 187.357956,166.285416 190.834351,166.692993 
z"/>
<path fill="#184AAC" opacity="1.000000" stroke="none" 
	d="
M257.442139,166.039520 
	C257.923218,178.384109 257.949158,190.705719 257.946808,203.490784 
	C244.998611,204.130600 244.998978,204.130600 245.003860,191.448410 
	C245.006485,184.636673 245.218765,177.815933 244.928696,171.016663 
	C244.759598,167.053040 246.073685,165.539566 250.014008,165.963928 
	C252.313553,166.211594 254.661072,166.013885 257.442139,166.039520 
z"/>
</svg>